<svg xmlns="http://www.w3.org/2000/svg" xmlns:xlink="http://www.w3.org/1999/xlink" width="131" height="108" viewBox="0 0 131 108">
    <defs>
        <path id="a" d="M.333.61h105.585v105.589H.333z"/>
    </defs>
    <g fill="none" fill-rule="evenodd" transform="translate(-.236 -.318)">
        <circle cx="66.4" cy="54.318" r="54" fill="#FFF"/>
        <path fill="#2F4A5E" d="M55.48 94.844l-1.925-.59.322-1.057 1.925.59-.322 1.057M59.88 97.752c-.149 0-.3-.013-.457-.04-.734-.126-1.273-.494-1.619-1.105-.345-.613-.407-1.567-.187-2.866.162-.95.385-1.63.667-2.04.28-.41.614-.709.998-.896.261-.127.553-.191.877-.191.152 0 .312.015.48.043.43.074.765.204 1.005.392.239.188.448.437.629.75.178.31.286.677.322 1.098.035.421-.002.965-.116 1.63-.233 1.363-.62 2.265-1.163 2.707a2.22 2.22 0 0 1-1.437.518m.361-5.71a.696.696 0 0 0-.582.303c-.183.246-.325.663-.424 1.249l-.075.433c-.121.713-.177 1.186-.17 1.42.008.234.079.429.21.585a.826.826 0 0 0 .634.3c.133 0 .264-.04.394-.12.166-.101.3-.276.401-.525.103-.248.21-.703.323-1.365.1-.593.15-1.02.143-1.28-.006-.259-.07-.479-.191-.66a.734.734 0 0 0-.502-.326.944.944 0 0 0-.161-.014m-1.618.53c.042 0 .093.005.147.01l.094.01.003-.001.02-.267.476.012-.001-.001v-.018a.754.754 0 0 0-.094-.35l-.11-.204-.314-.023a2.333 2.333 0 0 0-.223-.013c-.037 0-.075.002-.114.005l.038.42.017.163.064.002-.061.033.02.224a.651.651 0 0 1 .038-.002M68.882 98.2l-1.513-.007-1.177-3.406h-.022l-.018 3.4-1.485-.008.035-6.872 1.93.01c.387.002.77.081 1.152.237.384.156.656.398.816.725.162.327.242.667.24 1.02-.001.334-.06.62-.173.86-.202.12-.329.287-.367.488a3.036 3.036 0 0 1-.623.438l1.205 3.116m-2.7-5.786l-.01 1.987h.016c.472 0 .772-.093.9-.279.129-.189.193-.428.195-.717.004-.657-.263-.986-.8-.99h-.301M71.438 97.942l-.842-6.82 1.475-.182.841 6.82-1.474.182M77.795 96.898a1.863 1.863 0 0 0-.181-.456l-.001-.002-.002-.002c-.194-.334-.48-.503-.853-.503h-.02l.011.845.012-.002h.007l.049.011a.187.187 0 0 1 .072.08 2.021 2.021 0 0 1-.84-.44c.01-.278-.07-.56-.238-.725a.831.831 0 0 0-.484-.213 7.01 7.01 0 0 1-.575-1.53c-.29-1.108-.302-2.01-.032-2.708.27-.699.794-1.151 1.575-1.356.249-.065.483-.098.703-.098.772 0 1.362.406 1.77 1.217l-1.116.879c-.148-.479-.406-.719-.774-.719a1.06 1.06 0 0 0-.272.038.764.764 0 0 0-.49.354c-.103.177-.142.395-.12.655.023.259.114.69.272 1.293.187.71.337 1.19.454 1.442.115.253.262.427.439.523a.737.737 0 0 0 .354.088.96.96 0 0 0 .25-.035c.534-.14.702-.654.506-1.543l-.883.232-.34-1.287 2.39-.628.287 1.09c.074.284.104.666.085 1.147-.016.48-.173.946-.465 1.4a2.022 2.022 0 0 1-1.227.884c-.11.03-.218.052-.323.069M82.88 95.125l-.415-1.01.057.037.225-.35-.216.355.067.043.456-.71-.157-.102-.446.69-2.177-5.311 1.375-.564 2.604 6.36-1.373.562M86.923 93.364l-2.111-3.634.377.056.001-.006.024-.1.025-.097.052-.23-.714-.7-.107.489-1.005-1.73.524-.304.115.216.083-.053a.631.631 0 0 0 .254-.425l.429-.25 3.633 2.829.023-.014-2.144-3.693 1.218-.707 3.456 5.952-1.355.788-3.69-2.872-.019.012 2.177 3.75-1.246.723M93.131 89.512l-2.909-6.528 1.154-.968 5.734 4.16-1.112.933-.865-.675-1.387 1.163.498.982-1.113.933m-1.268-5.709l-.017.014 1.395 2.753 1.017-.852-2.395-1.915m1.725.876c-.05 0-.095.008-.118.032-.048.044-.002.17.006.32.14-.07.24-.096.298-.16l-.029-.175a.888.888 0 0 0-.157-.017M98.75 84.448l-5.13-4.57.98-1.101 4.122 3.67 1.154-1.298 1.012.901-2.137 2.398"/>
        <g transform="translate(13.627 .708)">
            <mask id="b" fill="#fff">
                <use xlink:href="#a"/>
            </mask>
            <path fill="#2F4A5E" d="M86.916 78.78l-.9-.645 1.174-1.637.898.644-1.172 1.637" mask="url(#b)"/>
            <path fill="#2F4A5E" d="M53.162 106.199h-.081c-17.533-.015-34.146-8.834-43.929-23.58l3.395-1.17c7.85 11.37 20.104 18.821 33.522 20.772.042.054.087.107.138.153.14.125.3.213.455.213a.422.422 0 0 0 .323-.16.74.74 0 0 0 .058-.075 49.035 49.035 0 0 0 22.153-2.326 49.981 49.981 0 0 0 5.195-2.124c.537.485 1.25.79 1.848.79.232 0 .448-.046.628-.146.484-.271.818-1.514.704-2.304A49.02 49.02 0 0 0 91.31 84.619a.882.882 0 0 0 .738.382c.072 0 .137-.007.193-.017l.057-.011.053-.026.082-.044.082-.055-.4-.55-.026-.147-.053.006-.064-.07-.014-.022-.354.19c7.535-9.417 11.496-21.443 10.758-33.77l3.396-1.17c.494 6.3-.164 12.54-1.842 18.454-.132-.008-.29-.013-.467-.036.123.345.149.593.265.732-4.702 15.746-16.667 29.073-33.389 34.838a52.698 52.698 0 0 1-17.163 2.896m-4.14-.976a.684.684 0 0 0 .09.52l.103.177.28.037c.06.01.125.02.195.027h.003l.005.001h.006l.002.002.12.005.004-.422v-.144l-.126-.032.128-.076.003-.17a1.803 1.803 0 0 1-.217-.025l-.082-.013h-.001l-.034.233-.478-.12m18.291-3.762l-.123.835.076.03.141.051.019.007.236-.812h-.002l-.071-.027-.004-.001a1.035 1.035 0 0 0-.256-.081l-.016-.002m-40.589-4.853l.111.382.119.406.04-.012.129-.058.006-.005.004-.002.004-.002.006-.003.001-.002a.758.758 0 0 0 .228-.21h.002v-.005l.005-.005.003-.006h.001a.93.93 0 0 0 .142-.61l-.01-.058c-.06-.255-.174-.45-.341-.579l-.524.662.035.081-.005.036v.001l.001-.002h-.001l.01-.014.002.01h.001l.031-.005m57.672-4.381a.668.668 0 0 0-.476.223c-.255.268-.213.777.137.92a.914.914 0 0 0 .352.055c.095 0 .2-.006.316-.012.117-.006.244-.013.386-.013h.03c-.146-.459-.155-.794-.334-.986a.559.559 0 0 0-.411-.187m2.533.86l.007.02.175.071.034-.06.077-.144v-.003l-.029-.011.057-.028.38-.183-.004-.008a.68.68 0 0 0-.409-.353l-.004-.001a.751.751 0 0 0-.223-.033.917.917 0 0 0-.288.048l-.179.059-.076.173-.033.06-.06.11-.001.003-.024.054.58.236.02-.01m5.087-7.399c-.046-.14-.056-.234-.11-.304l-.189-.006c-.038.077-.036.173-.051.262.096.011.193.026.35.048m1.984-1.457c-.01.098-.05.205-.016.287.018.053.156.063.298.113.006-.147.052-.271.004-.332-.046-.058-.188-.05-.286-.068m-.151-1.286a.327.327 0 0 0-.258.13l.052.16c.07.029.136.047.197.047.12 0 .222-.068.296-.245a.605.605 0 0 0-.287-.092m4.26-4.2l-.025.08.08.018.032-.076-.088-.022m-.49-2.079l-.578.525.244.271.584-.527c.253.061.579.03 1.032.059-.141-.445-.154-.73-.307-.913a.591.591 0 0 0-.453-.196c-.205 0-.405.094-.484.276-.056.124-.066.34-.038.505m4.985-9.393c-.007 0-.014.002-.017.005-.076.083-.11.202-.16.306.061.028.147.088.19.088a.034.034 0 0 0 .017-.004c.097-.056.165-.152.296-.291-.155-.046-.278-.104-.326-.104m-49.592 33.094c-15.066-.036-29.356-7.38-38.138-19.72l1.01-.349c8.626 11.954 22.562 19.046 37.24 19.045 4.963 0 10.013-.811 14.968-2.52A45.704 45.704 0 0 0 89.203 81.83l.675.023-.142-.414.213-.435-.11-.003c.071-.095.143-.19.213-.286l-.076.394.778.38A46.676 46.676 0 0 1 74.778 95.07a1.98 1.98 0 0 0-.248.105 3.356 3.356 0 0 0-.332.19 47.38 47.38 0 0 1-5.772 2.426 46.879 46.879 0 0 1-14.807 2.574l.099-.461-.031-.058-.791.294c.031.083.07.16.116.227m.119-11.466c-10.273 0-20.076-4.498-26.786-12.21l1.71-.59c6.378 7.037 15.51 11.123 25.07 11.123 1.653 0 3.319-.122 4.985-.372l.591.44.058-.052.118-.109.001-.002-.362-.34a33.986 33.986 0 0 0 5.628-1.42c11.013-3.797 18.804-12.717 21.63-23.175a.59.59 0 0 0 .197.043c.025 0 .043-.004.05-.012.09-.104.184-.29.138-.39-.028-.065-.12-.104-.25-.159.483-1.906.8-3.862.944-5.844l1.713-.59c-.686 13.133-8.679 25.231-21.269 30.7l-.095-.05a2.913 2.913 0 0 1-.009.095 35.775 35.775 0 0 1-8.532 2.477l.024-.116-.98.254c-1.53.201-3.057.3-4.574.3m27.058-14.02l.094.07.007-.006.015-.018-.07-.065.009-.004.067.062-.023-.024.024.023-.062-.064.595-.256-.031-.063-.001-.004h-.002a.694.694 0 0 0-.622-.376.86.86 0 0 0-.333.07l-.075.03-.086.086-.017.017-.077.094.51.374.036.072.042-.018M53.131 85.49c-8.817 0-17.254-3.668-23.277-10.007l.973-.336c5.826 5.966 13.883 9.407 22.3 9.406 3.364 0 6.787-.55 10.146-1.708A30.989 30.989 0 0 0 79.04 70.668c.21.024.473.017.825.052-.148-.38-.202-.66-.308-.855a31.313 31.313 0 0 0 2.828-5.813l.485-.247a.966.966 0 0 0-.278-.34 31.155 31.155 0 0 0 1.492-6.678l.972-.335c-1.164 12.124-9.21 23.05-21.477 27.279a32.006 32.006 0 0 1-10.447 1.758m37.636-4.018l.167-.855-.327-.064.031-.06-.03.06-.09-.017-.293-.057a45.876 45.876 0 0 0 1.607-2.354c-.032.067-.025.15.013.235.042.097.166.167.266.167a.14.14 0 0 0 .109-.042c.083-.095.104-.237.184-.436-.153-.018-.267-.051-.357-.051a.241.241 0 0 0-.187.083 46.232 46.232 0 0 0 4.382-8.862l.209.572c.123.34.23.632.33.886a47.22 47.22 0 0 1-6.014 10.795m4.812-9.844l-.041.03-.066.044.498.683h.001l.041-.029.069-.048-.502-.68m1.661-2.157l-.07-.189-.125-.025-.646-.473a45.799 45.799 0 0 0 2.626-17.148l1.011-.348a46.688 46.688 0 0 1-.875 11.363l-.138.055a4.417 4.417 0 0 1-.195.078l.151.395-.002.007-.44-.219-.029.06.418.236-.174.274h.001c.064.04.13.082.192.125a47.156 47.156 0 0 1-1.705 5.81M.367 55.297a52.42 52.42 0 0 1-.015-3.335c.296-.1.568-.262.766-.483.625-.688.579-1.226-.15-1.818a2.313 2.313 0 0 0-.48-.295 52.858 52.858 0 0 1 4.788-18.238l.11.01-.051-.136C11.18 18.53 21.87 8.349 35.92 3.505A53.36 53.36 0 0 1 43.1 1.577v.004c.09.223.104.421.039.593l-.006.016.782.319.015-.038c.072-.191.102-.393.092-.601v-.005a1.843 1.843 0 0 0-.081-.444A52.352 52.352 0 0 1 53.124.61h.002c6.693 0 13.251 1.283 19.347 3.689.035.069.074.14.117.213.499.832 1.54 1.409 2.362 1.409.233 0 .447-.047.627-.146a.623.623 0 0 0 .112-.082 53.012 53.012 0 0 1 10.99 6.965l-.015.153c.058.057.162.063.303.109a.325.325 0 0 1-.001-.024 52.512 52.512 0 0 1 8.873 9.489l-3.437 1.185a49.08 49.08 0 0 0-2.28-2.784.864.864 0 0 0-.013-.132v-.002l-.092.016C80.705 10.18 67.233 4.077 53.125 4.077c-2.518 0-5.057.194-7.595.593l.004-.01-.07-.027-.535-.536-.082.092.331.261-.334-.26-.029.042-.045.074.37.203-.373-.198-.018.036a.748.748 0 0 0-.07.267l.741.05.033.018a49.644 49.644 0 0 0-8.401 2.1 49.209 49.209 0 0 0-15.086 8.382.82.82 0 0 0-.322.037c-.024.009-.01.105 0 .227a49.153 49.153 0 0 0-4.857 4.624c-1.076.035-2.054.483-3.085 1.1.489.306.966.577 1.448.78A49.544 49.544 0 0 0 7.114 35.66l-.005-.003-.064.158h.001l-.001.002.008.003a49.317 49.317 0 0 0-1.643 5.117.579.579 0 0 0-.044-.045c-.243-.22-.66-.264-1.235-.476-.04.578-.183.96-.061 1.251a.653.653 0 0 0 .625.417.96.96 0 0 0 .458-.125 49.113 49.113 0 0 0-1.347 12.154L.367 55.298m2.167-5.67l.255.804.024-.008.025-.008.11-.052a.689.689 0 0 0 .318-.353.735.735 0 0 0-.043-.616l-.033-.063-.102-.098-1.17-.56.551 1.111.065-.156m8.609-27.66c.023.298-.008.462.06.582.031.058.2.105.29.105.023 0 .042-.003.05-.012.09-.103.184-.29.137-.39-.047-.103-.256-.145-.537-.285m83.163-.014c-.006 0-.011 0-.016.003l-.054.109.123.041.077-.12c-.054-.011-.1-.033-.13-.033m-2.205-2.282a.197.197 0 0 0-.074.012l-.023.152a.349.349 0 0 0 .21.044c.027-.005.035-.1.063-.196-.07-.003-.128-.012-.176-.012m-4.192-4.666l-.296.79c.03.012.074.047.13.133.044.07.097.174.157.325.063.209.065.334.056.404v.005l.834.135c.037-.235.009-.5-.088-.811l-.005-.014-.005-.015a2.669 2.669 0 0 0-.253-.507 1.11 1.11 0 0 0-.508-.437l-.022-.008m-2.341-.804l.35.238.356.228a.833.833 0 0 0 .116-.316l.001-.001v-.003c.018-.111.015-.215.013-.285l-.007-.057a1.31 1.31 0 0 0-.05-.204l-.398.136.393-.151-.398.144v-.001.001l-.397.143.392-.132-.391.134.013.044a.877.877 0 0 1-.006.105v0l.007-.011.006-.012M36.344 4.852c0 .07-.029.165.008.203.016.016.044.02.077.02.02 0 .043-.001.064-.003l.063-.003h.006c0-.068.028-.161-.009-.198-.016-.017-.047-.022-.083-.022l-.05.002-.051.002-.025-.001m26.83-2.058c-.052 0-.098.008-.122.033-.045.043 0 .17.009.32.137-.072.237-.097.297-.16l-.029-.176a.854.854 0 0 0-.155-.017M6.164 53.3c.005-2.158.16-4.298.457-6.41l.332-.114-.28-.253a47.12 47.12 0 0 1 3.86-12.873l.363.095.001-.002.021-.063a.85.85 0 0 0 .072-.316l-.001-.036-.314.018c5.213-11.034 14.697-20.037 27.147-24.33A46.866 46.866 0 0 1 53.124 6.44c11.806 0 23.143 4.488 31.736 12.354l-.03.003a4.942 4.942 0 0 0-.397.062c-.293.059-.482.201-.563.422a45.789 45.789 0 0 0-3.21-2.635l.05.014.306.14-.021.034.017-.017.031-.031.007-.006.103-.107-.001-.001.001-.002-.649-.54h-.001l-.049.05-.04.04c.033-.114-.001-.346-.067-.379a.839.839 0 0 0-.36-.084c-.079 0-.15.015-.193.048-.04.03-.053.089-.057.168a46.058 46.058 0 0 0-4.818-2.993l.164-.223-.27.166a46.044 46.044 0 0 0-16.706-5.185 2.708 2.708 0 0 0-1.05-.22c-.194 0-.38.024-.545.073a45.71 45.71 0 0 0-13.225.947c.017-.055.046-.114.025-.152-.026-.042-.113-.055-.172-.082l-.029.172c.021.035.082.052.135.072-.264.058-.527.119-.79.182L42.4 8.6l-.023.011.057.124a14.85 14.85 0 0 0-.162.04l-.053-.028-.023.046-.004.001-.015-.006-.004.011a46.556 46.556 0 0 0-4.017 1.186 45.72 45.72 0 0 0-23.499 18.328l-.067-.008.024.074a46.15 46.15 0 0 0-6.367 15.253 1.377 1.377 0 0 0-.091.01l-.062.005-.1.043c-.066.028-.142.058-.216.103h-.003l-.09.065.407.51a45.722 45.722 0 0 0-.9 8.578l-1.027.354m11.705-4.035a35.48 35.48 0 0 1 1.46-6.7l.253.32c.134-.106.34-.355.213-.836l-.045-.17-.152-.09-.007-.004a35.669 35.669 0 0 1 3.09-6.622 1.49 1.49 0 0 0 .65-.392c-.038-.134-.064-.236-.095-.336a5.597 5.597 0 0 1-.034-.114c.452-.71.93-1.405 1.432-2.082a3.206 3.206 0 0 1 1.053-.185c.11 0 .22.006.335.019.09.01.18.016.268.016.259 0 .504-.049.722-.165a33.9 33.9 0 0 0-3.082 4.437.655.655 0 0 0-.267-.057c-.206 0-.405.094-.484.275-.094.206-.06.666.062.725a.78.78 0 0 0 .134.047c-.217.404-.427.812-.628 1.224a.817.817 0 0 0-.207.038l-.021.006.083.257a.02.02 0 0 1-.002.005l-.093-.258.091.26-.09-.26-.073.03.134.293a33.927 33.927 0 0 0-2.917 9.704l-1.783.615m1.653-4.615c-.01.1-.05.205-.015.289.018.051.154.06.298.111.004-.147.05-.27.002-.331-.045-.058-.187-.05-.285-.069m-.15-1.286a.322.322 0 0 0-.257.132l.05.158a.5.5 0 0 0 .196.047c.12 0 .224-.068.298-.246a.613.613 0 0 0-.288-.09m2.129 4.648c.03-.18.063-.359.097-.537l.137.456-.234.08m.438-.15l-.336-.413a32.184 32.184 0 0 1 11.286-18.946c-.061.115-.084.257-.122.388-.059.206-.188.472.034.625.062.042.127.083.194.121a30.998 30.998 0 0 0-4.916 5.267.753.753 0 0 0-.289-.057.82.82 0 0 0-.393.103c-.308.166-.415.697-.208 1.018a.779.779 0 0 0 .074.098 31.321 31.321 0 0 0-4.74 11.595l-.584.201m3.233-16.33a35.32 35.32 0 0 1 17.332-11.99.614.614 0 0 0 .31-.097 35.359 35.359 0 0 1 13.708-1.375c-.03.075-.04.161-.01.195.067.088.228.108.436.19.008-.147.037-.257.033-.338a35.655 35.655 0 0 1 17.579 6.999l-.96.33 1.471.063a35.506 35.506 0 0 1 3.268 2.91l-1.783.614a33.967 33.967 0 0 0-16.958-8.816l.12-.097.33-.263-.045-.068c-.046-.069-.102-.157-.187-.232l-.003-.002-.002-.002-.004-.001-.003-.004-.002-.001v-.002l-.003-.002-.001-.002h-.003v-.002l-.005-.003-.002-.002-.002-.002-.004-.003h-.001l-.002-.002h-.002l-.003-.002v-.002l-.004-.002v-.002h-.001l-.003-.001-.003-.003h-.002v-.002h-.003l-.002-.002-.001-.002-.003-.002h-.001l-.004-.003-.003-.002h-.003l-.001-.002h-.003l-.002-.003h-.001l-.003-.003h-.001l-.004-.003h-.001l-.003-.002-.001-.001h-.003l-.002-.003-.002-.001h-.003l-.002-.002-.002-.001-.002-.001-.003-.002-.001-.002h-.004v-.002l-.004-.002h-.002l-.003-.003-.12-.042-.096.412-.078.338a34.844 34.844 0 0 0-1.091-.19 1.05 1.05 0 0 0 .133-.316l.02-.081-.014-.083c-.041-.26-.202-.684-.83-.684l-.06.001.032.72-.02.01.022.058.002.056.017-.001.001.001.082.23a33.527 33.527 0 0 0-4.571-.313c-3.651 0-7.366.597-11.011 1.854-1.045.36-2.061.766-3.046 1.216.007-.03.012-.053.004-.059-.052-.03-.116-.042-.175-.06l-.047.146.095.03a33.557 33.557 0 0 0-9.084 6.157c.07-.18.075-.467-.034-.586-.115-.12-.428-.076-.848-.13.135.378.153.642.302.77.047.04.153.057.261.057a.788.788 0 0 0 .236-.032 33.49 33.49 0 0 0-2.287 2.416.952.952 0 0 0-.513-.147c-.256 0-.499.092-.745.14-.348.07-.7.123-1.053.175m9.884-8.353l-.12.03-.7.172.048.143c.133.308.426.496.78.505l.075.002 2.32-.8-2.377-.047-.026.001.004.005-.113.049.11-.06m7.808-2.802a.314.314 0 0 0-.176.05c-.143.096-.184.248-.07.369.086.089.246.11.452.194.024-.208.08-.343.047-.46-.028-.099-.14-.153-.253-.153m13.442-2.089l-.001.002-.031.054a.905.905 0 0 0-.109.232l.804.253.027-.048.004-.007.075-.135v-.001l-.769-.35m17.38 11.735a31.279 31.279 0 0 0-3.338-2.554l.064-.032v.001-.001l.382-.182a.562.562 0 0 0-.144-.184l-.002-.001a.657.657 0 0 0-.432-.148h-.006l-.168.002-.122.115-.054.045-.05.04a31.197 31.197 0 0 0-16.7-4.867c-3.362 0-6.783.55-10.14 1.707a31.082 31.082 0 0 0-8.68 4.628.828.828 0 0 0-.22-.235.832.832 0 0 0-.498-.166c-.135 0-.276.033-.42.095a32.007 32.007 0 0 1 9.51-5.208 32.018 32.018 0 0 1 10.454-1.76c8.021 0 15.727 3.033 21.586 8.352l-1.023.353m-31.435-5.94c-.141-.157-.207-.23-.28-.23-.061 0-.128.053-.252.152l.532.079m46.767.653a45.687 45.687 0 0 0-3.021-3.418c.016-.006.033-.011.049-.018a.825.825 0 0 0 .514-.87 46.624 46.624 0 0 1 3.485 3.952l-1.027.354m-8.38-8.119L80.6 16.6l.037.018m-.347-.247l-.041-.03a.432.432 0 0 0 .087-.035.6.6 0 0 0-.046.065" mask="url(#b)"/>
        </g>
        <path fill="#2F4A5E" d="M8.022 85.697l3.847-13.678-11.524-8.59L23.98 55.28l.752.253a1.04 1.04 0 0 0 .024-.52l16.084-5.545-.024.305-.035.42c.047.03.115.2.16.315.032.156.004.21.004.21l.002-.002v-.002l.547.643.028-.024c.176-.164.361-.477.238-1.038l-.01-.04-.011-.03c-.069-.176-.165-.42-.338-.607H41.4l-.003-.004-.002-.001v-.001a.82.82 0 0 0-.34-.218l4.688-1.616c.11.173.265.299.45.365l.215-.595 6.983-2.407c-.053.205-.077.42-.07.627.012.333.368.6.725.646.282.035.566.058.87.09.099-.236.182-.438.272-.638.205-.46-.01-.972-.425-1.198l59.873-20.64c.02.062.004.078-.019.102l-.01.011.581.613.049-.048a.935.935 0 0 0 .2-.955l7.334-2.528-3.783 13.868 11.46 8.401-26.788 9.235a1.185 1.185 0 0 0-.198-.092h-.004a1.118 1.118 0 0 0-.472-.06l.03.373-9.151 3.155a1.207 1.207 0 0 0-.048-.393l-.011-.043-.02-.04a.97.97 0 0 0-.401-.417l-.396.746.002.002.025.029-.014.116-.025.012.099.26-8.434 2.908c.074-.176.12-.396.146-.667-.762.187-1.153.428-1.165 1.018l-45.48 15.679c-.035-.1-.064-.182-.093-.26-.08.037-.204.062-.23.124-.029.066-.016.167.02.24L8.023 85.698m2.492-3.174l-.085.038c.009.06.033.116.05.174l.162-.082-.127-.13m4.053-3.687l-.001.003-.02.068-.042.152v.002l.826.172h.001l.06-.207-.824-.19m6.044-4.495c-.45 0-.88.068-1.294.243-.343.146-.613.6-.741.971-.211.606.023.933.597.933.081 0 .17-.006.263-.02 1.232-.171 2.025-.918 2.799-1.912-.568-.125-1.108-.215-1.624-.215m14.634.595l.056-.042h.001l.282-.211.33-.263a.749.749 0 0 0-.596-.294.798.798 0 0 0-.402.11l.213.365-.002.001.002-.001.17.292-.054.043.021-.017-.021.017M24.6 70.796c-.108-.224-.136-.362-.223-.434l-.288.02c-.035.105-.05.275.016.341.065.066.239.042.495.073m19.615-.244l.051.214-.051-.214.076.206-.031-.106-.014-.042.075.137-.106-.242.276-.497-.036-.02-.057-.024-.005-.003a.568.568 0 0 0-.323-.018l-.034.01-.116.049.276.513.001.002.005-.01-.115.24.082-.16.032-.06.001.002.004-.009.005.016.004.016m-30.655-1.737c0 .623-.108 1.004.023 1.29a.65.65 0 0 0 .608.395.898.898 0 0 0 .427-.116c.427-.234.49-.644.172-.97-.227-.236-.63-.32-1.23-.6m23.635-.458c-.555.247-.692.592-.482 1.303.592-.399.799-.725.482-1.303m14.59.79l-.026-.703.002-.073.001-.057.002-.035-.007-.129-.22.03-.069.007.054-.107-.054.107-.55.068v.033l-.002.045-.002.138.005.21.172.122.694.345m-18.198-2.979c-.341 0-.668.116-.856.343-.356.43-.237 1.109.269 1.527.264.219.594.329.903.329.28 0 .544-.091.727-.275.386-.39.292-1.26-.177-1.637a1.397 1.397 0 0 0-.866-.287m-14.295 1.28l-.136.123-.007.01h-.001l.628.567.002-.004.002-.002h.001l.047-.041.026-.021.082-.072.051-.054-.408-.348-.197-.236-.03.028-.023.02-.035.03.267.326-.269-.325m35.624-1.163l-.4.743.137.075.178.095.202-.37v-.001l.202-.37h-.002l-.317-.172m6.034.575l-.019-.107.002.005v-.002l.004.014-.001-.005.03.09-.017-.053.018.053-.036-.107-.006-.048.426-.526a.678.678 0 0 0-.534-.15l.064.416-.076-.414-.055.012-.047.013.13.401-.142-.397.138.4.088.254.03.15-.017-.112.02.113m-24.39-.843l-.03.07-.037.084-.03.077.802.266.03-.07c.031-.064.066-.144.087-.233l.005-.023-.415-.08-.137-.027-.276-.064m-4.49-.203l-.39.164-.39.162a.85.85 0 0 0 .089.164l.086.105h.003v.001l.03.03.286-.311v.001h.002-.001l.285-.316m-3.735-.992l-.438.284.332.418.107.132.001.004.004.003.004.004.001.002.004.006.077.08.27-.27.05.078.048-.033-.057-.087.285-.285-.007-.008-.002-.002-.003-.002v-.002l-.003-.002h-.002l-.002-.005-.109-.132-.047-.06-.286.226-.227-.35m2.397-1.796c-.01.577-.08.893-.005 1.177.08.286.294.47.563.47a.7.7 0 0 0 .276-.061c.437-.19.545-.587.248-.947-.186-.227-.543-.333-1.082-.64m-13.65 1.478c-.035-.225-.018-.438-.077-.46a.744.744 0 0 0-.245-.039.874.874 0 0 0-.244.034l-.007.351c.128.079.31.07.573.114m33.161-.244a.043.043 0 0 0-.016.003l-.054.11.123.04.077-.119c-.053-.012-.1-.034-.13-.034m-26.22-.874l-.346.77c.004.002.042.035.109.19l.39-.16.389-.163c-.086-.21-.238-.505-.543-.637m37.444-.262l-.59.604.006.01.026.043.012.024v.001l.788-.298a1.026 1.026 0 0 0-.242-.384m-21.085-.505c.084.191.153.355.229.518.168.357.51.558.907.558.15 0 .308-.029.466-.089.427-.159.641-.667.447-1.12a1.075 1.075 0 0 0-.323-.425 1.553 1.553 0 0 1-.489-.544c-.152-.292-.408-.421-.723-.421a1.25 1.25 0 0 0-.128.007 4.2 4.2 0 0 0-.396.062c-.418.083-.626.336-.605.745.01.144.041.287.067.429.046.247.066.33.216.33.074 0 .178-.02.332-.05M29.389 62.3l.02.082-.293.08-.406.112.001.01c.098.337.393.549.759.549h.04l.09-.014.078-.024-.005-.014-.132-.385-.002-.002h.002l.137.4.063-.024-.271-.626-.005-.076.058-.017-.06.015-.023.007-.034-.078.024.08-.01.004-.029-.08.004.015-.006-.014m9.232.075a.07.07 0 0 0 .041-.011c.041-.028.043-.111.06-.172a8.413 8.413 0 0 1-.253-.025l.01.183.014.002.068.014.023.005.014.002.015.001h.008m9.268-.515l-.809.243.007.022.02.087.833-.137a1.444 1.444 0 0 0-.039-.172l-.012-.043m.15.12a.205.205 0 0 0-.074.01l-.022.152a.333.333 0 0 0 .207.043c.03-.004.036-.1.066-.195-.07-.003-.129-.01-.177-.01m12.506-1.608a.892.892 0 0 0-.403.102l.354.71.002-.002v.001l.483-.669a.733.733 0 0 0-.436-.142m-16.819.549a.082.082 0 0 0-.034.006c-.048.024-.059.117-.086.18.062.022.131.069.187.069.007 0 .013-.001.02-.003.05-.013.078-.103.142-.2-.1-.02-.176-.052-.229-.052m-17.404-.071l-.05.101c.05.055.118.098.177.146.031-.066.064-.127.095-.19-.074-.02-.146-.048-.222-.057m15.538-1.206l.01.01.098.146.37.54.06-.044c.245-.202.338-.523.249-.873l-.005-.016-.038-.112-1.153-1.127.376 1.464.007.055v-.002.002l.01-.024.016-.02m-14.692-1.38l-.267.803h.005c.025.013.085.067.171.3a.913.913 0 0 1 .02.258l-.002.005-.002.003.398.148.4.134.03-.107V59.8a1.1 1.1 0 0 0 .023-.218v-.003a2.209 2.209 0 0 0-.038-.392l-.005-.038-.014-.037a1.785 1.785 0 0 0-.313-.574l-.003-.002v-.003l-.003-.002v-.001l-.003-.004-.003-.002-.001-.002-.095-.09-.003-.003h-.001l-.003-.005h-.002l-.002-.002-.003-.002-.001-.001-.003-.001v-.002a.874.874 0 0 0-.28-.154m8.757-.2c-.08 0-.15.014-.193.047-.101.076-.038.34-.051.63.29-.064.518-.057.64-.161.076-.06.043-.392-.038-.432a.831.831 0 0 0-.358-.084m24.11.469l.831.158a.822.822 0 0 0-.01-.327v-.001l-.002-.006v-.005l-.001-.003v-.001l-.02-.073-.404.128-.4.13.005.023.001-.023m10.085-.121l-.006-.08-.081-.008.007.08.08.008m-23.999-.727l.57.623c.247-.225.315-.575.178-.934l-.395.15-.395.15.014.06v.002-.002l.015-.033.013-.016m-24.456-.677c-.276.128-.426.413-.409.78l.756-.033-.17-.364-.177-.383m-2.118-.173l-.221.815c.055.015.12.044.19.074l.074.03.162-.39.162-.388v-.002l-.067-.028c-.08-.033-.168-.072-.265-.101h-.004l-.031-.01m48.137-.468l.159.08.049-.062.03-.038.15-.01.419-.034-.016-.114-.012-.044v-.007a.712.712 0 0 0-.33-.428l-.003-.002a.888.888 0 0 0-.453-.115h-.049l-.214.008-.121.182-.049.059-.093.121-.001.001h-.001l-.055.09v.001l-.002.006-.003.007.57.286.002.01-.002.001-.003.001-.007.002.007-.002h.003v.002h.025m-7.204-1.413l-.039.845.05.005.116.023.004.001.081.017v.001l.17-.828v-.001l-.072-.014c-.09-.02-.192-.043-.31-.049m-15.512.483c-.042.06-.122.129-.114.184.008.06.104.11.162.162.038-.06.118-.125.11-.18-.012-.06-.102-.11-.158-.166m-5.27.042v.003l.815.215h.003l.02-.062.048-.142v-.002l.019-.088-.306-.047.307.034-.419-.051-.007-.001-.411-.063h.001l-.001.003-.021.06-.049.142h.002m3.208-.256c-.01-.135.02-.252-.026-.292-.028-.023-.076-.033-.126-.033a.424.424 0 0 0-.132.021l-.02.196c.06.057.163.064.304.108m18.821-.595l-.026.07.067.046.042-.1-.083-.016m-16.04-.723a.51.51 0 0 0-.238.056c-.207.108-.27.332-.142.524a.479.479 0 0 0 .612.15c.178-.105.251-.37.152-.541-.072-.12-.226-.19-.385-.19m30.044.428c-.035.068-.051.106-.07.146l.162.06.061-.097c-.034-.042-.087-.068-.153-.109m-2.246-.67a.403.403 0 0 0-.207.05c-.189.117-.269.476-.143.645.083.109.247.171.407.171.086 0 .17-.018.24-.055.2-.107.286-.407.174-.586-.086-.138-.29-.225-.471-.225m-30.597.58c-.06-.232-.093-.322-.14-.322-.021 0-.046.022-.079.057l.22.265m29.201-.45l-.035.02.095.137.055-.041-.115-.115m-23.07-.534l.027.08.086-.04-.044-.07.609-.239a.733.733 0 0 0-.698-.483.881.881 0 0 0-.171.017l-.076.016-.065.04.176.286.115.409.04-.016m7.105-.942l-.1.378c.092.02.205.07.283.07.02 0 .04-.003.055-.011.074-.045.102-.206.089-.307-.006-.044-.173-.074-.327-.13m15.996.13l.386.174.021-.045.023-.047.041-.094h-.001l.004-.003-.792-.298-.03.06-.01.022-.024.05-.004.008.386.173v.002-.002m-3.04-.84a.37.37 0 0 0-.244.085c-.053.049-.079.178-.049.239.038.073.14.112.255.112a.543.543 0 0 0 .284-.08c.008-.05.058-.144.028-.213-.037-.092-.153-.142-.274-.142m-6.886-.377l.256.805.027-.009a.847.847 0 0 0 .587-.713l-.42-.05v-.003.003l-.415-.048-.028.013.138.398h-.003l-.142-.396m23.515.26c-.009.22-.013.362-.017.508.11-.01.264.015.321-.046a.382.382 0 0 0 .079-.324c-.014-.055-.19-.075-.383-.139m-21.998.268l-.029.069.07.057.08-.053-.121-.073m-16.47-.293l-.47.245.031.068c.166-.063.332-.124.498-.189l-.059-.124M64.7 51.03a.741.741 0 0 0-.373.105c-.01.068-.08.207-.037.31.052.13.214.2.38.2a.518.518 0 0 0 .277-.075c.139-.087.209-.202.124-.36-.06-.114-.203-.18-.371-.18m-2.189.005l-.017.076.081.03.024-.078-.088-.028m7.17-2.21h-.023c-.53.008-.937.228-1.177.676-.192.352-.024.972.315 1.229.148.112.37.175.588.175.241 0 .478-.077.607-.252.202-.275.43-.34.747-.355.033-.301.15-.592-.05-.852-.247-.324-.542-.622-1.007-.622m17.006.655a.535.535 0 0 0-.234.059c-.153.074-.282.196-.421.298.158.469.538.612.93.71a.19.19 0 0 0 .048.005.463.463 0 0 0 .328-.16c.061-.088.025-.268-.026-.387-.056-.127-.18-.233-.273-.344a.451.451 0 0 0-.352-.181m-7.174.806l-.001-.12-.09.015.004.082.087.023m14.089-.915l.172.685.043-.013.02-.007h.001c.318-.11.508-.408.497-.783v-.065l-.913-2.647.069 2.733-.002.032.002-.002-.002.002.016-.025.005-.007.053-.036.005-.001.034.134-.088.03.088-.03m-21.214-.232c-.006.221-.05.368-.002.473a.233.233 0 0 0 .222.144.36.36 0 0 0 .167-.045c.152-.086.202-.24.079-.365-.085-.09-.242-.113-.466-.207m15.2.487l-.002-.081-.086-.006.005.081.082.006m.683-.522l-.162.434c.376-.102.415-.141.232-.41l.262.089.024-.084v-.006l.001-.001a1.05 1.05 0 0 0-.07-.61l-.02-.05-.033-.045c-.196-.264-.392-.428-.581-.523l-.002-.002h-.001a1.025 1.025 0 0 0-.803-.057l-.007.002c-.063.021-.13.05-.194.084l.197.372.195.375.08-.033a.18.18 0 0 1 .063-.011c.071 0 .176.044.338.25l.012.07v-.005l.47.16m22.552-1.73l-.383.753.057.046.129.097v.002l.467-.705v-.001h-.001l-.056-.045-.09-.07h-.002v-.002l-.121-.074m-36.741.298c-.022.105-.048.154-.03.182l.114.051.035-.146-.12-.087m-2.86-.72a.686.686 0 0 0-.411.145l-.196.143.023.24v.068c0 .07 0 .16.021.253l.002.01.366-.088h.002l.086.052-.074-.056.114-.023-.035.08.005.002.013.004.008.003-.008-.003.03-.089.07-.014.074.097-.023.01-.104.008-.04-.009a.438.438 0 0 0 .281.004.423.423 0 0 0 .274-.493l.052-.033-.018-.03-.042.03v-.003l.04-.03a.656.656 0 0 0-.275-.229l-.013-.004v-.001l-.004-.002-.01-.003-.007-.003-.006-.002-.159-.033h-.035m-8.852.196a.18.18 0 0 0-.068.012l-.044.158c.067.016.135.046.2.046l.019-.001c.028-.007.043-.099.084-.197-.077-.005-.14-.018-.19-.018m7.135-.48c-.073 0-.142.011-.183.044-.063.052-.01.23-.006.473.226-.107.367-.138.438-.222l-.049-.27a.878.878 0 0 0-.2-.026m13.714-2.427a.827.827 0 0 0-.37.08c-.371.19-.575.833-.366 1.173.184.298.545.478.887.478a.845.845 0 0 0 .377-.084c.343-.17.69-.828.558-1.065-.19-.346-.672-.582-1.086-.582m38.618 1.284l.222.36a.671.671 0 0 0 .24-.248v-.001l.003-.003v-.003l.001-.002a.845.845 0 0 0 .057-.588l-.034-.15-.121-.092-.06-.055-.06-.056-.056-.047-.028-.021-.251.339.24-.346-.239.331.234-.338-.243.347-.185.264-.006.01-.016.003h.001v.001l.002.013-.04.055.02-.027-.02.027.002.001.059.054.13.116h.003l.06-.08.085.136-.004.002.004-.002m-49.878-.14l-.083.018.002.042.08.026v-.086m36.192-.959l-.55.642.05.064.002.002.098.128.632-.563v-.002l-.048-.062-.007-.01-.015-.022-.029-.035-.015-.02-.012-.013-.005-.008-.101-.1m3.942.036l-.31.286-.157.146-.16.134.018.028.02.034.042.076.033.052.698-.476-.001-.001-.036-.062-.056-.098-.001-.001-.002-.002-.068-.093-.02-.023m-52.535-.644l-.046.067.113.04.02-.083-.087-.024m20.556-1.992l.13.402.015-.005-.14-.399h.002l.148.395a.817.817 0 0 0 .493-.474l.001-.001v-.001c.062-.152.084-.33.064-.52l-.014-.068c-.115-.428-.396-.72-.784-.821l-.01-.003-.207.82.033.008c.043.018.103.059.144.186l-.003.077.135.402h-.002l-.136-.4.13.402m-9.674-.345l-.001-.12-.092.012.003.084.09.024m-2.236-.555l-.083.037c.009.06.03.117.048.174l.163-.082-.128-.13m42.584-1.046l-.221.16-.684.546.56.147.038.17.838-.12-.043-.23.278-.235-.354-.208-.008-.054-.155-.041-.249-.135m-41.056-.083a.15.15 0 0 0-.034.004l-.075.145.182.1c.056-.011.088-.1.166-.203-.109-.019-.18-.046-.239-.046m13.7-.22l-.015.076.044.012.014-.074-.044-.014m33.407-1.445c.03.247.06.492.1.84.357-.023.587-.04.816-.052-.046-.241-.005-.573-.156-.703-.085-.072-.225-.085-.377-.085l-.131.002-.132.002c-.042 0-.082 0-.12-.004m-16.698-2l.342.735.063-.033c.21-.124.339-.35.36-.623v-.003l.002-.075-.767-.001m2.223-4.073c-.645.18-1.214.315-1.767.493-.584.187-.914.658-.811 1.107.117.492.517.615.922.615.044 0 .088 0 .132-.003.77-.042 1.53-.17 2.314-.267.326-.93-.666-1.253-.79-1.945m-6.622 1.397c-.08.037-.206.062-.23.123-.034.078-.01.203.04.275.009.013.034.017.07.017.061 0 .157-.012.263-.013-.062-.172-.102-.29-.143-.402m.806-.743l.376.19h.001l.03-.056.076-.147h-.001l.002-.004-.776-.334v.001l-.033.064-.006.01-.043.078-.004.008.378.19v.001-.001M57.217 36.946l-.407-3.617-3.366-1.382 3.315-1.503.273-3.63 2.454 2.688 1.285-.313 1.819-.06h.023-.005.004l-.02-.009-.062-.07v-.004l-.002-.005.036-.006.12-.02.032.09-.032-.09.139-.026-1.6 2.816 1.913 3.097-3.566-.732-2.353 2.776M67.674 33.787l-.295-2.633-2.45-1.005 2.413-1.094.197-2.642 1.788 1.956 1.89-.461c-.015.248-.017.44.056.6.028.06.061.114.1.16l-.784 1.377 1.394 2.254-2.595-.532-1.714 2.02M76.566 33.87l-.21-1.866-1.738-.712 1.71-.777.141-1.872 1.123 1.229a.273.273 0 0 0 .034.101c.06.108.19.172.34.172a.615.615 0 0 0 .31-.087c.006-.043.028-.104.043-.17l1.242-.303-.928 1.634.151.245c-.313.03-.617.1-.912.225-.343.145-.615.6-.741.972-.086.245-.098.445-.044.595l-.521.615m.028-3.13l-.062.109.085.032.076-.1-.1-.04M42.947 45.46l-.071-.634a.216.216 0 0 0 .084-.031c.164-.11.268-.293.414-.463l-.556-.025-.046-.411c.076.041.16.06.243.06a.7.7 0 0 0 .498-.237c.244-.26.145-.689-.211-.896-.137-.079-.275-.14-.42-.14-.178 0-.365.092-.568.357.044.111.078.277.138.437L41 42.882l1.71-.777.14-1.872 1.268 1.387 1.823-.445-.927 1.633.988 1.598-1.84-.378-1.215 1.432m-1.194-2.768l-.165.047.07.152a.042.042 0 0 0 .02.004c.039 0 .095-.034.144-.048l-.069-.155M48.45 40.414l-.295-2.633-2.45-1.005 2.412-1.094.2-2.642 1.785 1.956 2.573-.627-1.309 2.303 1.393 2.255-2.595-.533-1.713 2.02m2.26-4.423l.206.37.058-.036.005-.004.002-.002.002-.001.052-.042.002-.002.028-.025.269-.189-.103-.298-.007-.023a.576.576 0 0 0-.208-.359l-.009-.004v-.002l-.002-.002-.008-.005-.235.351-.029.042-.149-.209-.001.001-.089.072-.001.003-.013.012-.003.003h-.003l.002.002.004-.005.022-.014.006-.004.144.262-.064.095.097-.033.026.046v.001m-.281.037l.001.003.036-.012-.002-.004-.042-.052v-.004h-.002v-.001l-.001-.001-.002-.002v-.003h-.001v-.002l-.013-.026v-.002l-.006-.016v-.002.001l.003.023.029.1M72.903 82.45l-.405-3.617-3.368-1.381 3.316-1.503.272-3.63 2.455 2.688 3.536-.862-1.798 3.165 1.913 3.097-.704-.145v-.002l-.003-.004-.094-.15v-.002l-.002-.001-.001-.002a.66.66 0 0 0-.364-.202l-.17-.031-.141.079-.046.02h-.001l-.002.002-.044.021-.002.002h-.001l-.062.04.032.045-1.961-.403-2.355 2.776m1.186-4.5l-.223.815.002.001.005.002.05.062v.001l.39-.168.385-.167a.926.926 0 0 0-.61-.546M81.925 75.12l-.296-2.632-2.45-1.005 2.412-1.095.198-2.642 1.787 1.957 2.572-.627-1.31 2.303 1.395 2.254-2.595-.533-1.713 2.02m-1.561-3.887a.44.44 0 0 0-.146.022c-.115.04-.224.423-.153.502.126.137.38.277.554.277a.247.247 0 0 0 .067-.008c.149-.047.197-.371.344-.689-.278-.036-.495-.104-.666-.104M87.888 66.715l-.21-1.867-1.737-.712.774-.352c.212.087.437.134.653.134.21 0 .41-.044.58-.14.18-.1.32-.244.42-.414.154.168.336.27.544.301l.125-.817.023.026 1.822-.445-.927 1.634.988 1.597-1.84-.378-1.215 1.433m1.333-3.208l.637.556.025-.03.009-.012c.179-.234.196-.56.048-.896l-.386.172-.386.171.027.096.002-.001-.002.001.002-.005.014-.039.01-.013m-.723-.46c.068-.265.053-.56-.051-.844l.498.545-.447.299M54.27 78.304l-.21-1.866-1.737-.712 1.711-.777.14-1.872 1.266 1.387 1.825-.445-.927 1.633.987 1.598-1.841-.378-1.215 1.432M62.7 81.748l-.295-2.633-2.451-1.005 2.412-1.094.2-2.642 1.785 1.957 2.574-.628-1.31 2.304 1.273 2.06-.02-.017-.126.157-2.328-.48-1.715 2.02M82.752 93.793l.217-.338-.16.259-.057.079"/>
        <path fill="#2F4A5E" d="M29.54 62.694l-.062-.157v-.023l.063.18m32.936-10.667l-.141-.399.003-.001.138.4M16.232 50.534l-.031-.098h-.004l-.036-.1.003-.001h.003l.037.1.003.018-.006-.017.032.097h-.001M121.563 45.223l.061-.06.022.04-.083.02m-6.772-21.058l-.018-.004h-.001l-.002-.001-.095-.056.146-.09-.03.151M58.95 5.287l-.003-.002-.2-.14.204.142"/>
        <path fill="#FFFFFE" d="M60.866 58.689l-.83-.158-.002.023-.006-.023.401-.13.403-.128.02.073v.001l.002.003v.005l.002.006v.001a.822.822 0 0 1 .01.327M62.45 52.036l-.256-.805.142.396h.003l-.138-.398.028-.013.414.048.421.05a.847.847 0 0 1-.587.713l-.027.01m-.111-.41l-.003.001.14.4-.137-.401m.304-.363l.002-.003-.002.003M37.266 66.515l-.803-.266.03-.077.037-.084.03-.07.276.064.137.027.415.08-.005.023c-.02.09-.056.169-.087.232l-.03.07v.001M73.924 78.831l-.002-.001-.05-.062-.004-.002-.002-.001.223-.815c.273.074.49.268.609.546l-.386.167-.388.168M67.008 80.26l-.266-.053.126-.157.02.017.12.194M54.832 67.2l-.178-.096-.137-.075.4-.743.317.171h.002l-.202.37v.002l-.202.37M96.922 32.903l-.376-.19-.378-.19.004-.008.043-.079.006-.009.032-.064h.001l.776.333-.002.003.001.001-.076.147-.03.056h-.001m-.376-.189v-.001.001M88.912 63.665a.911.911 0 0 1-.544-.3c.058-.099.102-.206.13-.318l.447-.299.092.1-.125.817M70.596 19.537l-.804-.254a.905.905 0 0 1 .109-.232l.03-.054.002-.001.769.35-.075.136-.004.006-.027.049M73.224 20.924l-.204-.04.078-.338.096-.412.12.043.003.002h.002l.004.003.004.001.001.002.003.002.002.001.002.002h.002l.003.002h.002l.002.003h.003v.002h.003l.002.002.004.002.003.003h.002l.002.003h.003l.001.002h.003l.003.002.004.003.003.002.002.002.002.003h.003v.001h.002l.003.003.002.002h.001l.001.002.004.001v.002l.003.002h.002l.002.002.005.004.002.001.002.003.005.002v.003h.003l.001.002.003.002v.001l.002.001.003.004.004.001.002.002.003.002c.084.075.141.163.187.233l.044.067h.001l-.33.264-.12.096M82.598 94.2l-.067-.043.216-.354-.225.349-.057-.038-.014-.036.446-.69.157.101-.456.711m.371-.745l-.217.338.058-.08.16-.258M63.453 106.7l-.12-.006-.002-.001h-.011l-.003-.001c-.07-.007-.135-.018-.195-.027l-.28-.037-.102-.178a.684.684 0 0 1-.09-.52l.478.12.034-.232h.001l.082.013c.08.012.155.023.216.024l-.002.17-.128.076.127.033-.001.144-.004.422M49.047 53.338l-.027-.08-.04.017-.116-.409-.176-.287.065-.04.076-.015a.881.881 0 0 1 .17-.017c.315 0 .579.178.699.483l-.609.24.044.068-.086.04M28.427 65.756l-.077-.08-.004-.006-.001-.002-.004-.004-.004-.003v-.004l-.108-.132-.332-.418.438-.284.227.35.286-.227.047.06.109.132.002.004h.002l.003.003v.002l.003.002.001.003h.001l.007.007-.285.285.057.087-.048.032-.05-.078-.27.27M55.799 9.507l.003-.011.016.006-.02.005m.024-.006l.023-.047.053.028a3.333 3.333 0 0 0-.076.019m.237-.058l-.056-.124.023-.01.057.128-.024.006M83.975 28.176a31.422 31.422 0 0 0-.531-.344c.017-.015.034-.028.05-.04l.053-.045.122-.116.168-.001h.006c.17 0 .32.053.431.147l.003.002c.06.05.108.112.143.183l-.38.183-.065.031M107.75 45.262l-.097-.128-.002-.002-.05-.064.55-.642.101.1.005.009.012.013.015.02.029.035.015.023.007.01.048.061v.002l-.632.563M103.017 52.948l-.03-.373a1.118 1.118 0 0 1 .472.06h.002c.065.023.132.053.199.092l-.643.221M110.408 71.384c-.1-.254-.207-.547-.33-.886l-.21-.573c.054-.144.106-.29.157-.435l.647.474.124.024.071.19c-.148.404-.3.805-.459 1.206M40.513 55.696l-.816-.215.002-.003h-.002l.049-.142.02-.06.002-.002h-.001l.411.063.007.001.42.051-.308-.034.306.047-.02.088v.002l-.046.142-.021.061h-.003M60.92 63.805l-.012-.025-.026-.044-.007-.01.591-.603c.104.102.185.23.242.384l-.788.298M89.858 64.063l-.637-.556-.01.013-.014.04-.002.004-.027-.096.386-.171.386-.172c.148.336.13.662-.048.896l-.01.012-.024.03m-.663-.499l.002-.001-.002.001m.359-.267M104.38 82.196l-.777-.38.076-.393.173-.237.294.057.088.016.327.065-.167.854-.013.018m-.147-.937l.031-.06-.03.06M21.256 57.787c-.017-.368.133-.653.409-.781l.176.383.17.364-.755.034M78.12 80.262l-.9-.185-.033-.045.062-.04.003-.002.044-.021.002-.002.047-.02.14-.08.171.032a.66.66 0 0 1 .364.202v.002l.002.001.001.002.094.15.003.004v.002M15.33 79.233l-.826-.172v-.002l.041-.152.02-.068.002-.003.823.19-.059.206M100.481 36.867l-.342-.734v-.001l.767.001-.002.075v.003c-.021.274-.15.499-.36.623l-.063.033M72.506 52.62l-.386-.173v.002-.002l-.386-.173.004-.008.025-.05.01-.022.029-.06.792.298-.004.003h.001l-.041.094-.023.047-.02.045M27.89 59.913l-.4-.134-.397-.148.002-.003.002-.005a.913.913 0 0 0-.02-.259c-.086-.232-.146-.286-.17-.298l-.006-.001.267-.803c.108.037.2.09.28.154v.002h.003l.001.002.003.002.002.002h.002l.003.004h.001l.003.004.095.09v.002l.004.002.003.004.002.003v.002h.001l.003.003c.175.2.264.442.313.574l.014.037.005.038c.02.124.04.256.038.392v.003a1.1 1.1 0 0 1-.022.217v.001l-.002.006-.03.107M60.951 66.86l-.02-.112.017.112-.03-.15-.088-.254-.138-.4.143.397-.13-.4.046-.014.055-.012.076.414-.064-.416a.678.678 0 0 1 .534.15l-.426.526.006.048.036.107-.018-.053.017.054-.03-.091.001.005-.004-.014v.002l-.002-.005.019.107M77.4 96.929a2.12 2.12 0 0 1-.511-.06.187.187 0 0 0-.072-.08l-.049-.01h-.019l-.012-.844h.02c.374 0 .66.169.854.503l.002.002.001.002c.074.128.135.28.181.456a2.584 2.584 0 0 1-.396.03M72.328 88l-.59-.44c.134-.02.27-.042.405-.064l.362.34-.001.002-.118.11-.058.051M103.505 82.56l-.675-.023c.216-.274.427-.549.636-.828l.11.002-.214.435.143.414M80.243 42.23l-.13-.403-.13-.402.136.4h.002l-.135-.402.003-.077c-.041-.127-.101-.168-.144-.186l-.033-.009.208-.82.009.004c.388.101.669.393.784.821l.014.068c.02.19-.002.368-.064.52v.002a.817.817 0 0 1-.494.474l-.148-.395h-.002l.14.4-.016.004M105.675 85.709a.882.882 0 0 1-.738-.383l.294-.363.354-.19.014.022.064.07.053-.007.026.148.4.55-.082.054-.082.045-.053.025-.057.011a1.07 1.07 0 0 1-.193.018M93.774 50.056l-.172-.685-.088.03.088-.03-.034-.134-.005.001-.053.036-.005.007-.016.025.002-.032-.069-2.733.913 2.647v.065c.011.375-.18.674-.497.783h-.001l-.02.007-.043.013m-.285-.75l.002-.002-.002.002M96.01 64.76c.072-.195.141-.39.208-.587a.966.966 0 0 1 .278.34l-.485.247M93.91 75.66l-.094-.07-.042.018-.035-.072-.511-.375.077-.093.017-.017.086-.086.075-.03a.86.86 0 0 1 .333-.07c.265 0 .494.137.622.376h.002v.003l.032.064-.595.256.062.063-.024-.023.023.025-.067-.063-.01.004.07.066-.014.018-.007.005M36.196 39.654l-.134-.294.072-.03.091.261-.029.063m.03-.063l-.092-.26.093.257-.002.003m.004-.008l-.083-.256.02-.006a.817.817 0 0 1 .208-.038l-.145.3M24.523 34.452l-.363-.095.142-.303.314-.019.001.036a.85.85 0 0 1-.072.317l-.02.063-.002.001M42.337 60.34l-.37-.54-.098-.147-.009-.01-.016.02-.01.023v-.002.002l-.007-.055-.376-1.464 1.153 1.127.038.112.005.016c.089.35-.004.671-.25.873l-.06.045M33.209 43.593l-.253-.32c.084-.261.17-.522.261-.78l.007.004.153.089.044.17c.129.482-.078.73-.212.837M50.917 36.36l-.205-.369v.001l-.026-.047-.097.033.064-.095-.144-.262-.006.004-.022.014.013-.012.001-.003.089-.072h.001l.15.208.028-.042.235-.35.008.004.001.002.001.002.01.004c.151.113.19.279.207.36l.007.022.103.298-.27.189-.027.025-.002.002-.052.042h-.002l-.002.003-.005.004-.058.036m-.44-.717l-.002-.002h.003l.003-.003-.004.005M50.432 36.032l-.001-.003-.029-.1-.003-.022.006.016v.002l.013.026v.001l.001.001v.003l.002.001v.002l.003.001v.004l.042.052.002.004-.036.012m-.033-.125v-.002.002M47.107 62.21l-.02-.086-.007-.022.809-.243.012.043c.017.059.03.117.039.172l-.833.137M41.494 51.357l-.546-.643-.001.002-.002.002s.028-.054-.005-.21c-.044-.116-.112-.285-.16-.315l.036-.42.024-.305.216-.074a.82.82 0 0 1 .339.218v.001l.002.001.003.003.001.001c.173.186.27.431.338.608l.011.03.01.04c.123.56-.062.873-.238 1.037l-.028.024m-.678-1.584M58.863 92.591l-.094-.01a1.668 1.668 0 0 0-.184-.007l-.021-.224.061-.033-.064-.002-.017-.163-.038-.42c.04-.003.077-.005.114-.005.08 0 .157.007.223.013l.314.023.11.203a.754.754 0 0 1 .094.35v.02l-.475-.012-.02.267h-.003M67.843 56.445l-.16-.08h-.023l-.001-.002h.002l-.002-.011-.57-.286.003-.007.002-.006.055-.09.002-.002.093-.121.049-.06.12-.18.215-.009h.049c.172 0 .326.04.453.115l.004.002c.16.094.275.24.328.428l.001.007.012.044.016.114-.42.033-.148.01-.031.04-.05.061m-.193-.078v-.001l.007-.002-.007.003m.007-.003l.003-.001-.003.001M60.771 29.19l2.25-.55-.198.35-.14.024-.12.02-.035.007.001.005v.003l.062.072.021.008h-.004.005-.023l-1.819.06m1.945-.084l-.032-.09.032.09M110.48 40.903l-.037-.17-.561-.147.684-.546.221-.16.249.135.155.041.008.054.354.208-.278.234.043.23-.838.121M103.75 21.494l-.104-.119.092-.015v.001c.008.045.012.09.013.133M85.189 89.786l-.377-.056-.342-.588.107-.489.714.7-.052.23-.025.097-.024.1-.001.006M110.627 48.27l-.001-.001-.129-.097-.057-.046.383-.752.121.074v.001h.002l.09.071.056.044v.002l-.465.705M84.104 87.324l-.115-.216.452-.262a.631.631 0 0 1-.254.425l-.083.053M111.58 45.22l-.034-.053-.042-.076-.02-.034-.017-.028.159-.134.157-.146.31-.286.02.023.068.093.002.002h.001l.056.099.036.062.001.001-.698.476M115.188 24.754l-.58-.613.01-.01c.022-.025.038-.041.018-.104l.801-.276a.935.935 0 0 1-.2.955l-.049.048m-.367-.74l-.146.09.095.056h.002v.001l.02.004.03-.151M57.542 3.216l-.782-.319.006-.016c.065-.171.051-.37-.038-.593a.01.01 0 0 1-.002-.004c.282-.054.56-.106.842-.156.046.15.073.299.081.445v.004c.01.209-.02.41-.092.601l-.015.038M122.06 45.886l-.222-.361-.004.002.004-.002-.084-.137-.061.081h-.004l-.13-.116-.058-.054-.001-.001.02-.027-.02.027.04-.055-.004-.013h.001v-.001l.015-.004.006-.01.185-.263.243-.347-.234.338.24-.331-.241.346.25-.34.03.022.055.047.06.056.06.055.12.092.035.15a.845.845 0 0 1-.057.588v.005l-.005.003v.001a.671.671 0 0 1-.239.249m-.309-.927l-.198.266.198-.266m-.127.204l-.06.06.082-.02-.022-.04M71.928 20.695c-.204-.032-.409-.062-.614-.09l-.082-.23H71.214l-.002-.055-.021-.058.019-.011-.031-.72h.059c.628 0 .789.424.83.683l.014.083-.02.082a1.05 1.05 0 0 1-.134.316M110.912 78.17l-.244-.272.578-.524c.018.108.054.194.102.217a.794.794 0 0 0 .148.051l-.584.528M109.598 73.091h-.001l-.498-.683.066-.044.041-.03.502.68-.069.049-.04.028M94.622 17.542l.02-.034-.304-.14-.05-.015-.061-.045.037.018-.037-.018a55.583 55.583 0 0 0-.31-.23.6.6 0 0 1 .046-.065.277.277 0 0 0 .049-.032.11.11 0 0 0 .03-.053l.04-.04.048-.05.65.54-.001.001.001.001-.103.107-.007.007-.03.03-.018.018M112.572 64.368a8.965 8.965 0 0 0-.192-.125l.173-.273-.418-.236.03-.06.439.218.002-.006-.151-.395c.066-.025.13-.051.194-.079l.139-.055c-.068.338-.14.675-.216 1.011M19.777 68.148l-.628-.567.008-.01.136-.122.27.325-.268-.327.035-.028.023-.021.03-.028.197.236.408.348-.05.054-.083.072-.026.021-.047.04v.001l-.003.002-.002.004M81.054 103.092l-.019-.007-.14-.052-.077-.03.123-.834.016.001c.098.015.183.05.256.081l.004.002.07.026h.003l-.236.813M29.47 63.133c-.366 0-.661-.212-.759-.55l-.001-.009.406-.111.294-.081-.021-.082.006.014-.004-.015.03.08.009-.004-.024-.08.034.078.023-.007.06-.015-.058.017.005.076.271.626-.063.025-.137-.401h-.002l.002.002.132.385.005.014-.079.024-.088.013h-.041m.008-.618v.023l.061.157h.002l-.063-.18M35.245 74.936l.021-.017-.021.017m0 0l.054-.043-.17-.292-.002.002v-.001l.002-.001-.213-.364a.798.798 0 0 1 .402-.111c.228 0 .448.102.595.294l-.33.263-.281.21-.001.001-.056.042M24.732 55.533l-.752-.253.776-.267a1.04 1.04 0 0 1-.024.52M20.68 36.527l-.008-.003.001-.002h-.001l.064-.157.005.002-.06.16M35.361 48.64l-.137-.457.005-.026.336.413-.204.07M44.267 70.766l-.051-.214.051.214M46.193 48.143a.884.884 0 0 1-.45-.365l.665-.23-.215.595M23.786 64.346c-.067-.156-.105-.189-.109-.192l.345-.77c.305.133.457.429.543.638l-.39.162-.39.162M46.69 58.306l-.569-.623-.013.016-.015.033-.014-.06.395-.15.395-.15c.137.359.07.709-.178.934m-.597-.572v-.002.002m-.001 0v-.002.001M44.292 70.758l-.076-.206-.004-.016-.005-.016-.004.01-.001-.003-.032.06-.082.16.115-.24-.005.01-.001-.002-.276-.513.116-.05.034-.009a.54.54 0 0 1 .323.018l.005.003.057.023.036.02-.276.498.106.242-.075-.137.014.042.03.106m-.02-.389l-.06.123.06-.123M66.75 101.075h-.111a1.09 1.09 0 0 1-.116-.228l.79-.294.032.058-.099.461c-.165.002-.33.003-.496.003M48.765 24.738l-.074-.001c-.355-.01-.648-.197-.781-.505l-.047-.143.698-.172.121-.03-.11.06.114-.05-.004-.004.026-.002 2.378.047-2.32.8M16.416 51.14l-.255-.804-.065.157-.552-1.112 1.171.56.102.099.033.063a.735.735 0 0 1 .043.616.689.689 0 0 1-.319.353l-.11.052-.024.008-.024.008m-.215-.704l.03.098.002-.001-.032-.097.006.017-.003-.019-.037-.1h-.003l-.003.002.036.1h.004M20.248 47.598c.017-.123.034-.245.053-.367l.278.253-.331.114M51.786 69.147l-.694-.345-.172-.122-.005-.21.002-.138.002-.045v-.033l.55-.068.069-.008.22-.029.007.13-.002.034v.057l-.003.073.026.704m-.317-.961l.054-.107-.054.107M40.582 98.103l-.119-.406-.11-.382-.032.005h-.001l-.002-.01-.01.015.005-.035-.035-.082.524-.661c.167.128.28.323.341.579l.01.058a.93.93 0 0 1-.142.609h-.001l-.002.006h-.001l-.004.005-.002.005a.758.758 0 0 1-.23.21v.002l-.006.004-.004.002-.004.002-.006.004-.13.058-.04.012m-.273-.776v-.002h.001l-.001.002m0 0v-.002.001M93.076 56.376l-.099-.261.025-.012.014-.116-.025-.029-.002-.002.396-.746a.97.97 0 0 1 .4.418l.02.04.012.042c.04.137.054.269.048.393l-.79.273M100.74 93.886l-.176-.071-.007-.02-.02.01-.581-.236h.001l.024-.055.001-.002.06-.11.033-.06.076-.174.179-.058a.917.917 0 0 1 .288-.049c.078 0 .152.011.222.033l.005.001a.68.68 0 0 1 .409.353l.004.008-.38.183-.057.028.029.012v.003l-.077.143-.034.06M60.496 61.182l-.354-.71a.892.892 0 0 1 .403-.101c.157 0 .306.048.436.142l-.483.67v-.002l-.002.001M59.08 5.39l-.033-.018-.742-.05a.748.748 0 0 1 .07-.267l.019-.036.374.197-.372-.203.046-.073.03-.042.333.26-.331-.262.082-.091.534.536.071.027-.004.01-.077.011m-.333-.245l.2.141.004.002-.204-.143M99.901 15.376l-.356-.227-.35-.239-.006.012-.007.012a.877.877 0 0 0 .006-.105l-.013-.044.391-.134-.392.131.397-.142.398-.145-.393.152.399-.136c.02.06.036.127.05.204l.006.057c.002.07.005.173-.013.284v.004a.833.833 0 0 1-.117.316m-.72-.437v-.005.005m.39-.299v-.002.002M102.417 17.506l-.834-.135v-.005c.01-.07.007-.194-.056-.403a1.992 1.992 0 0 0-.157-.326c-.056-.086-.1-.12-.13-.132l.296-.79.022.008c.219.088.383.248.507.437.106.158.186.335.254.506l.005.015.005.014c.097.312.125.577.088.811M71.332 89.31l.98-.255-.024.117c-.319.05-.638.096-.956.138M60.692 55.845l-.08-.018-.005-.001-.116-.023-.05-.005.04-.845c.117.006.218.029.31.049l.07.014.001.001-.17.828M21.718 45.076l-.407-.51.09-.065h.003c.074-.045.15-.075.215-.103l.101-.043.061-.006.092-.01c-.054.245-.106.49-.155.737M88.602 49.217l-.262-.09-.051-.073-.019.05-.469-.161v.006l-.012-.07c-.162-.207-.267-.251-.338-.251a.18.18 0 0 0-.063.011l-.08.033-.195-.375-.197-.372c.065-.034.131-.063.194-.084l.007-.002a1.025 1.025 0 0 1 .803.057h.001l.002.002c.189.095.385.26.581.523l.034.044.02.05c.086.216.11.425.07.61l-.002.002v.006l-.024.084M31.498 66.442l-.03-.03v-.001l-.003-.001-.086-.105a.85.85 0 0 1-.089-.164l.39-.162.39-.164-.285.316-.001-.001-.286.312m.288-.31h-.002v-.001h.002M71.145 47.785l-.008-.003.008.003M19.59 57.753l-.074-.031c-.07-.03-.135-.059-.19-.074l.221-.815.031.01h.004c.097.03.186.068.265.101l.067.028v.002l-.162.389-.162.39M70.66 47.812l-.002-.01c-.021-.094-.02-.184-.02-.254l-.001-.068-.023-.24.196-.143a.686.686 0 0 1 .447-.144l.158.032.001.001.006.002.008.003.009.003.004.002.013.006c.107.046.2.123.274.229l-.04.029v.003l.043-.03.018.03-.052.033a.423.423 0 0 1-.554.49l.039.008.104-.007.023-.011-.074-.097-.07.014-.03.09-.013-.005-.005-.002.035-.08-.114.023.074.056-.086-.053-.002.001-.366.089M88.697 26.217l-1.47-.063.959-.33c.171.129.342.26.511.393M88.546 13.688l-.107-.057.27-.167-.163.224M60.288 103.294c-.154 0-.313-.087-.454-.212a1.204 1.204 0 0 1-.138-.153c.325.047.649.09.974.131a.74.74 0 0 1-.058.075c-.1.112-.21.159-.324.159M116.938 38.972l-.1-.84c.037.004.077.004.119.004l.132-.002.131-.002c.152 0 .292.013.377.085.151.13.11.462.156.703-.229.013-.46.03-.815.052M117.34 69.172c-.115-.138-.14-.387-.264-.731.176.023.335.028.467.036-.066.232-.133.464-.202.695M68.3 94.647c.038-.2.165-.368.367-.488a1.427 1.427 0 0 1-.106.186c-.07.105-.158.205-.26.302M76.05 96.428a3.235 3.235 0 0 1-.723-.937c.189.023.361.094.484.213.169.165.248.447.239.724M98.037 94.133a.914.914 0 0 1-.352-.055c-.35-.144-.392-.653-.137-.92a.668.668 0 0 1 .476-.224c.148 0 .293.062.411.187.18.192.188.528.334.987h-.03c-.142 0-.27.006-.386.012-.116.007-.22.013-.316.013"/>
        <path fill="#FFFFFE" d="M112.528 77.701c-.453-.028-.78.003-1.032-.059a.794.794 0 0 1-.148-.05c-.048-.024-.084-.11-.102-.218-.028-.165-.019-.381.038-.506.08-.181.279-.276.484-.276.17 0 .341.065.453.197.153.182.166.467.307.912M93.49 71.427c-.351-.034-.615-.027-.824-.052.176-.264.349-.533.517-.802.106.195.16.475.308.854M93.476 85.031c-.008-.15-.054-.276-.006-.32.023-.024.068-.032.118-.032.052 0 .11.008.157.017l.03.176c-.06.063-.16.089-.299.16M105.644 86.396c-.157-.023-.254-.037-.35-.049.015-.088.013-.185.051-.261l.19.006c.053.07.062.164.109.304M89.866 99.4c-.598 0-1.312-.305-1.848-.79a49.002 49.002 0 0 0 3.18-1.66c.114.79-.22 2.032-.704 2.303-.18.1-.396.147-.628.147m-2.041-3.327c.099-.065.21-.129.332-.19.08-.04.162-.076.248-.105-.193.1-.385.197-.58.295M87.368 63.918a1.74 1.74 0 0 1-.653-.134l.936-.425.142-1.872.654.716c.104.284.119.58.051.844-.028.112-.072.22-.13.317-.1.17-.24.313-.42.414-.17.096-.37.14-.58.14M83.623 59.634c.012-.59.403-.83 1.165-1.018a2.262 2.262 0 0 1-.146.667l-1.019.351M80.62 72.034c-.174 0-.429-.14-.555-.277-.071-.079.038-.461.153-.502a.44.44 0 0 1 .146-.022c.171 0 .388.068.666.104-.147.318-.195.642-.344.689a.247.247 0 0 1-.067.008M99.598 62.945a.59.59 0 0 1-.197-.044c.046-.172.09-.343.135-.517.13.054.222.094.25.158.046.101-.048.286-.138.39-.007.009-.025.013-.05.013M80.82 86.694l.008-.094.096.05-.104.044M85.692 52c.004-.147.008-.29.017-.51.192.064.369.084.383.139a.382.382 0 0 1-.079.324c-.057.06-.211.035-.321.046M105.738 79.233c-.1 0-.224-.07-.266-.167-.038-.084-.045-.168-.014-.235l.029-.044a.241.241 0 0 1 .187-.083c.09 0 .203.034.357.052-.08.198-.1.34-.184.435a.14.14 0 0 1-.109.042M116.245 68.38c-.044 0-.13-.06-.192-.089.05-.104.085-.223.161-.305.003-.004.01-.006.017-.006.048 0 .171.058.325.104-.13.14-.198.235-.295.292a.034.034 0 0 1-.016.004M107.468 83.99a.518.518 0 0 1-.197-.048l-.052-.159a.327.327 0 0 1 .258-.13c.086 0 .182.033.287.091-.074.178-.176.245-.296.245M107.91 85.338c-.143-.05-.28-.06-.298-.112-.034-.083.006-.19.016-.287.098.018.24.01.286.067.048.061.001.185-.004.332M111.792 79.55l-.08-.018.024-.08.088.022-.032.076M43.16 29.687c-.108 0-.214-.017-.26-.057-.15-.127-.169-.391-.303-.77.42.055.733.01.848.13.11.12.103.406.034.586l-.083.08a.788.788 0 0 1-.236.031M35.27 16.136c-.01-.122-.023-.219 0-.227a.692.692 0 0 1 .323-.038 64.52 64.52 0 0 0-.322.265M10.48 82.735c-.018-.058-.042-.114-.051-.174l.085-.038.127.13-.162.082M38.621 62.375h-.008.008m-.023-.002l-.014-.002.014.002m-.037-.007l-.068-.014.068.014M13.979 52.67c.024-.869.07-1.733.136-2.596.172.08.335.179.48.295.729.592.775 1.13.15 1.819-.199.22-.47.383-.766.483M19.173 76.488c-.574 0-.808-.327-.597-.933.128-.37.398-.825.74-.97a3.274 3.274 0 0 1 1.295-.244c.516 0 1.056.09 1.624.215-.774.994-1.567 1.741-2.799 1.912-.094.014-.182.02-.263.02M33.904 68.367c-.31 0-.639-.11-.903-.33-.506-.417-.625-1.097-.27-1.526.189-.227.516-.343.857-.343.308 0 .627.095.866.287.469.376.563 1.247.177 1.637-.183.184-.446.275-.727.275M37.002 38.058a.78.78 0 0 1-.135-.047c-.121-.058-.155-.518-.061-.724.079-.181.278-.276.484-.276.09 0 .183.02.267.057-.19.328-.376.657-.555.99M19.013 31.847l-.11-.01.059-.127.05.137M28.24 29.086l-.024-.074c.022.004.045.006.067.009l-.043.065M36.714 69.659c-.21-.711-.073-1.056.482-1.303.317.578.11.904-.482 1.303M35.68 58.738c.014-.288-.049-.553.052-.629a.327.327 0 0 1 .193-.047c.122 0 .265.034.358.084.081.04.114.371.038.432-.122.104-.35.097-.64.16M17.082 64.503c-.262-.043-.445-.035-.573-.114l.007-.35a.874.874 0 0 1 .244-.035c.087 0 .171.012.245.038.059.023.042.236.077.461M24.601 70.796c-.256-.031-.43-.007-.495-.073-.067-.066-.051-.236-.016-.341l.288-.02c.087.072.115.21.223.434M37.84 75.418c-.036-.074-.049-.175-.02-.241.026-.062.15-.087.23-.124.029.078.058.16.093.26l-.302.105M41.678 42.895a.042.042 0 0 1-.02-.004l-.07-.152.165-.047.07.155c-.05.014-.106.048-.145.048M38.621 62.375h-.008l-.015-.002-.014-.002-.023-.005-.068-.014-.015-.002-.009-.183c.084.01.169.018.252.025-.016.06-.018.144-.059.172a.07.07 0 0 1-.04.01h-.001M28.777 22.64c-.482-.204-.96-.475-1.448-.78 1.03-.618 2.009-1.065 3.085-1.1a49.699 49.699 0 0 0-1.637 1.88M18.321 42.791a.653.653 0 0 1-.624-.416c-.122-.292.02-.674.06-1.251.576.211.993.255 1.236.475l.044.045c-.09.34-.175.681-.257 1.023a.96.96 0 0 1-.458.124M14.192 70.5a.65.65 0 0 1-.608-.395c-.13-.286-.023-.667-.023-1.29.6.28 1.003.363 1.23.599.319.326.255.736-.172.97a.898.898 0 0 1-.427.116M31.29 64.673c-.27 0-.482-.184-.563-.47-.076-.284-.004-.6.005-1.177.539.306.896.412 1.082.64.297.359.189.757-.248.946a.7.7 0 0 1-.276.06M25.119 23.364c-.089 0-.258-.048-.289-.105-.068-.12-.037-.285-.06-.582.28.14.49.181.537.284.047.101-.047.288-.138.39-.007.01-.026.013-.05.013M45.016 55.782c-.058-.052-.154-.103-.162-.162-.008-.055.072-.123.114-.184.056.055.146.106.158.167.008.054-.072.119-.11.18M26.449 61.096c-.06-.048-.127-.091-.176-.146l.05-.101c.075.01.147.036.221.058-.031.062-.064.123-.095.189M41.517 63.694c-.396 0-.74-.2-.907-.558-.076-.163-.145-.327-.229-.518-.154.03-.258.05-.332.05-.15 0-.17-.083-.216-.33-.026-.142-.057-.285-.067-.43-.021-.408.187-.66.605-.744a4.2 4.2 0 0 1 .396-.062 1.25 1.25 0 0 1 .128-.007c.315 0 .57.13.723.42.117.227.28.39.49.545.139.102.252.267.322.425.194.453-.02.961-.447 1.12-.158.06-.316.089-.466.089M69.384 50.906c-.219 0-.44-.063-.588-.175-.339-.257-.507-.877-.315-1.229.24-.448.647-.668 1.177-.677h.023c.465 0 .76.298 1.008.622.198.26.082.55.049.852-.317.015-.545.08-.747.355-.129.175-.366.252-.607.252m-.363-1.537c.089.311.222.377.403.379l.056-.1c-.123-.075-.246-.148-.459-.279M54.915 46.503c-.303-.03-.587-.054-.869-.09-.357-.046-.713-.312-.725-.645a2.231 2.231 0 0 1 .07-.627l1.372-.473c.416.226.63.738.425 1.198-.09.2-.173.402-.273.637M83.37 45.972c-.34 0-.702-.18-.886-.478-.209-.34-.005-.982.366-1.173a.827.827 0 0 1 .37-.08c.414 0 .896.236 1.086.582.132.237-.215.895-.558 1.065a.845.845 0 0 1-.377.084m-.165-1.174c0 .065.012.131.02.198l.127.024.02-.345c-.115.019-.162.05-.166.087a.692.692 0 0 0-.001.036M46.621 30.345a2.787 2.787 0 0 1-.194-.122c-.222-.152-.093-.419-.034-.625.038-.13.06-.272.122-.387l.27-.217c.144-.063.285-.095.42-.095.176 0 .343.053.498.166.096.07.167.149.22.234-.444.338-.878.686-1.302 1.046M56.13 20.249l.31-.096a.614.614 0 0 1-.31.096M40.89 36.774a.779.779 0 0 1-.075-.099c-.207-.32-.1-.852.208-1.017a.82.82 0 0 1 .393-.104c.1 0 .198.02.289.058-.28.381-.553.768-.816 1.162M87.01 50.552a.19.19 0 0 1-.048-.005c-.392-.098-.772-.241-.93-.71.14-.102.268-.224.42-.298a.535.535 0 0 1 .235-.06c.129 0 .25.058.352.182.093.11.217.217.273.344.051.12.087.299.026.387a.463.463 0 0 1-.328.16M73.542 54.528c-.16 0-.324-.062-.407-.171-.126-.17-.046-.528.143-.644a.403.403 0 0 1 .207-.05c.181 0 .385.086.47.224.113.18.027.479-.172.586a.515.515 0 0 1-.24.055M45.706 54.69a.479.479 0 0 1-.398-.205c-.127-.192-.065-.416.142-.524a.51.51 0 0 1 .237-.056c.159 0 .313.069.385.189.1.171.026.436-.152.541a.432.432 0 0 1-.214.055M64.67 51.646c-.166 0-.328-.07-.38-.2-.042-.103.027-.242.037-.31a.741.741 0 0 1 .373-.105c.168 0 .31.066.371.18.085.158.015.273-.124.36a.518.518 0 0 1-.277.075M42.876 44.826l-.058-.519.556.025c-.146.17-.25.352-.414.463a.216.216 0 0 1-.084.031M77.967 30.145c-.152 0-.281-.064-.34-.172a.273.273 0 0 1-.035-.101l.144.158.583-.141c-.015.065-.037.126-.044.169a.615.615 0 0 1-.308.087M56.696 21.697c-.205-.083-.366-.105-.45-.194-.115-.12-.074-.273.07-.368a.314.314 0 0 1 .174-.05c.115 0 .226.053.254.152.033.118-.023.253-.048.46M72.608 49.756a.233.233 0 0 1-.222-.144c-.048-.105-.004-.252.002-.473.224.094.38.118.466.207.123.125.073.28-.079.365a.36.36 0 0 1-.167.045M70.573 19.162c-.207-.081-.368-.102-.436-.19-.028-.033-.019-.12.01-.195.155.015.307.03.46.047.004.082-.025.191-.034.338M69.042 52.043c-.116 0-.217-.039-.255-.112-.03-.06-.004-.19.049-.24a.37.37 0 0 1 .244-.083c.121 0 .237.05.274.142.03.07-.02.164-.028.213a.543.543 0 0 1-.284.08M56.307 52.766c-.078 0-.19-.05-.283-.071l.1-.378c.154.056.32.086.327.13.013.101-.015.262-.09.307a.113.113 0 0 1-.054.012M32.988 44.408a.5.5 0 0 1-.197-.047l-.05-.158a.322.322 0 0 1 .257-.131c.087 0 .183.033.288.09-.074.179-.178.246-.298.246M33.432 45.758c-.144-.05-.28-.06-.298-.112-.035-.083.005-.19.015-.288.098.019.24.01.285.068.049.06.002.184-.002.332M88.108 49.538l.162-.434.019-.05.05.073c.184.27.145.31-.23.411M43.793 61.175c-.056 0-.125-.047-.187-.07.027-.062.038-.155.086-.18a.082.082 0 0 1 .034-.005c.053 0 .13.033.229.052-.064.097-.093.187-.143.2a.067.067 0 0 1-.02.003M42.907 55.223c-.141-.044-.244-.051-.304-.108l.02-.196a.424.424 0 0 1 .132-.021c.05 0 .098.01.126.033.046.04.017.157.026.292M55.877 24.791l-.532-.078c.124-.1.19-.152.253-.152.072 0 .137.073.279.23M69.804 40.047l-.182-.101.075-.145a.15.15 0 0 1 .034-.004c.058 0 .13.027.24.046-.08.102-.111.192-.167.204M46.802 51.778l-.03-.068c.155-.082.312-.164.47-.245l.058.124c-.166.065-.332.126-.498.189M62.458 47.365c-.065 0-.133-.03-.2-.046l.044-.158a.18.18 0 0 1 .068-.012c.051 0 .114.013.191.018-.04.098-.056.19-.084.197l-.019.001M42.888 54.242l-.219-.265c.033-.035.058-.057.08-.057.046 0 .08.09.14.322M75.823 54.538l-.162-.06c.019-.04.035-.078.07-.146.066.041.12.067.153.109l-.061.097M48.11 62.187a.333.333 0 0 1-.167-.046l.022-.152a.205.205 0 0 1 .074-.01c.048 0 .106.007.177.01-.03.095-.037.191-.066.195a.286.286 0 0 1-.04.003M52.562 23.419l-.094-.03.047-.146c.059.019.123.03.175.061.008.006.003.028-.004.058-.041.02-.083.038-.124.057M50.296 64.411l-.123-.04.054-.109a.043.043 0 0 1 .016-.003c.03 0 .077.022.13.034l-.077.118M74.166 47.905l-.114-.051c-.018-.028.008-.077.03-.182l.12.087-.036.146M79.513 50.286l-.087-.023-.004-.082.09-.015v.12M76.617 30.882l-.085-.032.062-.109.1.041-.077.1M72.15 53.949l-.095-.136.035-.02.115.115-.055.04M70.12 58.41l-.08-.008-.007-.08.08.007.007.08M87.587 49.626l-.082-.006-.005-.081.086.006.001.08M59.625 43.926l-.113-.04.046-.067.088.024-.021.083M70.439 41.482l-.09-.024-.003-.084.092-.012v.12M62.575 51.143l-.08-.03.016-.077.088.028-.024.079M71.96 45.47l-.081-.025-.002-.042.083-.018v.086M83.46 39.665l-.044-.012.014-.076.044.014-.014.074M63.753 51.884l-.07-.057.028-.069.12.073-.078.053M61.77 54.744l-.068-.046.026-.07.083.017-.042.099"/>
        <path fill="#FFFFFE" d="M69.424 49.748c-.18-.002-.314-.068-.403-.379l.459.28-.056.099M83.353 45.02l-.127-.024c-.008-.067-.02-.133-.02-.198l.001-.036c.004-.037.051-.068.166-.087l-.02.345M36.308 35.87a36.9 36.9 0 0 1 .52-.842l.035.115c.03.1.057.201.094.335a1.49 1.49 0 0 1-.649.393m1.953-2.925c.176-.237.356-.473.537-.706.352-.053.705-.106 1.052-.175.247-.049.49-.14.746-.14.163 0 .332.037.513.147-.16.185-.315.371-.47.56a1.515 1.515 0 0 1-.722.164c-.088 0-.177-.005-.268-.016a3.011 3.011 0 0 0-.335-.018c-.37 0-.717.069-1.053.184M43.015 43.957a.507.507 0 0 1-.243-.061l-.034-.302-.286-.117c-.06-.16-.094-.326-.138-.437.203-.265.39-.357.568-.357.145 0 .283.061.42.14.356.207.455.636.211.896a.7.7 0 0 1-.498.238M69.317 47.186c-.004-.242-.057-.421.006-.473.041-.033.11-.045.183-.045.068 0 .14.011.2.026l.05.27c-.072.084-.213.115-.44.222M68.168 41.138c-.017-.057-.04-.114-.048-.174l.083-.037.128.13-.163.08M71.734 8.446a47.316 47.316 0 0 0-1.595-.148 1.95 1.95 0 0 1 .545-.072c.342 0 .711.074 1.05.22M100.706 34.274c-.405 0-.805-.123-.922-.615-.103-.45.227-.92.811-1.107.553-.178 1.122-.314 1.767-.493.124.692 1.116 1.014.79 1.945-.784.096-1.543.225-2.314.267a2.28 2.28 0 0 1-.132.003M77.087 33.256c-.054-.15-.042-.35.044-.595.126-.372.398-.827.74-.972.296-.125.6-.195.913-.225l.837 1.352-1.841-.378-.693.818M93.876 17.05c-.17-.125-.34-.248-.512-.37.004-.079.018-.138.057-.167.044-.034.114-.048.193-.048.123 0 .266.034.36.084.066.033.1.265.068.379a.11.11 0 0 1-.03.053.432.432 0 0 1-.136.068M76.687 3.854c-.009-.15-.053-.277-.009-.32.025-.025.071-.033.123-.033.052 0 .109.008.155.017l.029.176c-.06.063-.16.089-.298.16M95.62 33.871c-.036 0-.061-.004-.07-.017-.05-.072-.074-.197-.04-.275.024-.06.15-.086.23-.123.041.113.08.23.143.402-.106 0-.202.013-.264.013M56.873 9.255c-.053-.02-.114-.037-.135-.072l.03-.171c.058.026.145.04.171.082.02.038-.009.096-.025.152l-.04.01M88.579 6.628c-.822 0-1.864-.577-2.362-1.408a3.148 3.148 0 0 1-.117-.214c1.089.43 2.161.894 3.218 1.395a.623.623 0 0 1-.112.081c-.18.1-.395.146-.627.146M71.372 28.668a.755.755 0 0 1-.099-.16c-.073-.16-.071-.352-.056-.6l.682-.166-.527.926M50.056 5.783c-.033 0-.061-.005-.077-.02-.037-.038-.008-.133-.008-.203h.025l.05-.001.051-.002c.036 0 .067.004.083.021.036.037.009.13.009.198h-.006c-.02 0-.041.002-.063.004a.736.736 0 0 1-.064.003M99.623 22.027a45.421 45.421 0 0 0-2.126-2.039c.08-.22.27-.363.563-.421.132-.025.264-.048.397-.062l.03-.003c.578.53 1.146 1.076 1.7 1.636a.825.825 0 0 1-.564.889M100.596 13.627c-.14-.046-.245-.052-.303-.109l.016-.152.286.237.001.024M105.802 20.59a.349.349 0 0 1-.17-.046l.022-.152a.197.197 0 0 1 .074-.011c.048 0 .106.008.176.011-.028.096-.036.192-.064.196a.246.246 0 0 1-.038.003M107.986 22.816l-.123-.042.054-.108a.035.035 0 0 1 .016-.003c.03 0 .076.021.13.033l-.077.12"/>
        <path fill="#2F4A5E" d="M33.34 29.097l1.167 1.7.833-1.155-2-.545zm-1.125-1.777l6.574 1.705-.765 1.358-1.407-.388-1.358 1.886.82 1.204-.91 1.264-3.838-5.803.884-1.226zM37.58 23.008c-.308.306-.423.688-.344 1.149.08.46.342.916.791 1.369.431.435.873.697 1.325.788.454.09.843-.027 1.169-.35a2.47 2.47 0 0 0 .436-.567c.109-.197.194-.393.252-.587l1.243.412c-.073.28-.206.57-.4.874-.193.303-.4.565-.622.785-.738.732-1.51 1.053-2.318.964-.806-.09-1.55-.479-2.233-1.167-.703-.712-1.086-1.485-1.146-2.319-.058-.834.254-1.59.937-2.268a4.06 4.06 0 0 1 .75-.569c.306-.185.61-.31.912-.377l.421 1.09a10.85 10.85 0 0 0-.688.38 2.803 2.803 0 0 0-.485.393M42.464 18.997c-.351.254-.523.614-.516 1.082.006.466.196.959.57 1.476.358.496.754.823 1.187.983a1.23 1.23 0 0 0 1.21-.166c.206-.149.379-.313.516-.492.139-.178.253-.358.342-.54l1.163.598a3.132 3.132 0 0 1-.529.802 4.48 4.48 0 0 1-.738.68c-.842.608-1.655.805-2.438.592-.783-.213-1.458-.712-2.025-1.497-.587-.812-.845-1.635-.775-2.468.071-.834.497-1.533 1.278-2.096.222-.16.498-.309.828-.445.33-.137.65-.214.958-.233l.248 1.143c-.323.108-.57.197-.738.267-.169.072-.35.176-.54.314M46.265 15.3l1.75 3.573c.2.406.454.658.764.755.31.097.628.065.955-.095.332-.163.555-.397.667-.705.112-.307.07-.66-.127-1.062l-1.75-3.573 1.41-.69 1.787 3.65c.351.717.394 1.391.13 2.025-.265.634-.781 1.139-1.55 1.515-.76.373-1.472.471-2.133.294-.663-.176-1.171-.625-1.523-1.346l-1.788-3.652 1.408-.69M54.719 13.277l-.847.24.494 1.74.865-.246c.295-.083.514-.227.659-.43.143-.204.176-.444.098-.72-.085-.3-.238-.495-.46-.585-.22-.09-.49-.09-.809.001zm2.821 4.648c-.29-.296-.576-.593-.86-.894l-.852-.897-.149.052-.152.044-.819.232.596 2.098-1.508.429-1.777-6.258 2.401-.681c.692-.197 1.338-.202 1.934-.017.596.185.997.64 1.203 1.363.107.38.114.735.018 1.064-.095.329-.253.61-.471.844.36.356.717.713 1.075 1.072.357.36.715.714 1.072 1.063l-1.71.486z"/>
        <path fill="#2F4A5E" d="M61.876 12.592l-.495 2.003 1.419-.145-.924-1.858zm.581-2.021l3.094 6.048-1.524.33-.644-1.31-2.312.238-.355 1.412-1.551.16 1.79-6.723 1.502-.155zM65.904 10.333l5.45.349c.02.212.036.421.052.626.016.206.032.415.05.627l-2.128-.136-.336 5.25-1.566-.1.337-5.25-1.938-.126.08-1.24M76.227 18.328l-4.585-1.013 1.402-6.352 4.072.9-.1 1.251-2.708-.598-.297 1.345 1.867.412-.097 1.242-2.036-.45-.308 1.392 2.877.636a32.61 32.61 0 0 1-.044.617c-.016.206-.03.412-.043.618M47.69 60.012c1.122 2.839-3.732 7.418-10.841 10.226-7.11 2.81-13.783 2.785-14.904-.054-1.122-2.84 3.732-7.418 10.841-10.227 7.11-2.809 13.783-2.784 14.905.055"/>
        <path fill="#FFFFFE" d="M22.64 63.588l1.05 3.078 1.931-.658c.564-.193.932-.456 1.104-.79.172-.334.153-.813-.06-1.437-.158-.462-.403-.77-.736-.92-.331-.15-.784-.127-1.358.068l-1.93.66zm10.797 4.84c.1.292.148.581.145.866a1.83 1.83 0 0 1-.191.8 2.03 2.03 0 0 1-.577.679c-.261.206-.598.38-1.01.52-.483.165-.913.244-1.292.238a2.299 2.299 0 0 1-.992-.217 2.071 2.071 0 0 1-.72-.58 2.824 2.824 0 0 1-.459-.854l-.335-.98a6.274 6.274 0 0 0-.403-.958c-.134-.247-.283-.428-.447-.547a.999.999 0 0 0-.553-.19 2.035 2.035 0 0 0-.73.131l-1.75.597 1.132 3.32c.158.463.795.503 1.912.123l.421 1.237-6.08 2.074-.418-1.223c.896-.305 1.265-.69 1.107-1.153l-2.512-7.36c-.157-.464-.684-.543-1.58-.238l-.421-1.237 7.167-2.444c.492-.169.987-.3 1.482-.396.495-.097.96-.105 1.397-.03.435.076.827.26 1.173.55.346.293.622.74.828 1.344.134.392.19.757.172 1.095a2.64 2.64 0 0 1-.216.925 2.6 2.6 0 0 1-.496.741 3.388 3.388 0 0 1-.687.555c.299-.013.574.014.827.08s.488.181.707.343c.218.162.417.384.597.666.182.282.342.63.483 1.044l.413 1.211c.076.222.177.37.303.445.127.075.261.09.402.042a.477.477 0 0 0 .307-.283c.055-.136.045-.315-.03-.537l-.248-.723.95-.325.222.65zM42.832 58.688l-1.484.59c-.499-1.266-1.282-1.718-2.348-1.354l-2.837.966 1.077 3.154 1.146-.39c.473-.162.562-.822.268-1.98l1.328-.452 1.38 4.785-1.298.443c-.509-1.13-.959-1.627-1.351-1.494l-1.041.355 1.266 3.712 2.292-.781c1.59-.542 2.12-1.79 1.588-3.742l1.575-.42 1.105 4.424-10.442 3.562-.421-1.238c.895-.305 1.263-.69 1.106-1.152l-2.507-7.348c-.157-.463-.684-.541-1.579-.236l-.422-1.237 10.441-3.562 1.158 3.395M49.791 53.906c-1.117.381-1.596.803-1.438 1.265l2.64 7.74 2.58-.88c.644-.219 1.077-.605 1.298-1.158.221-.553.197-1.373-.073-2.46l1.379-.352 1.105 4.423-10.17 3.47-.422-1.238c.895-.305 1.264-.69 1.106-1.152l-2.506-7.348c-.158-.462-.684-.542-1.58-.236l-.422-1.237 6.081-2.074.422 1.237M61.273 49.99c-.895.305-1.264.69-1.106 1.152l2.506 7.348c.158.462.685.54 1.58.236l.421 1.237-5.763 1.966-.422-1.237c.905-.31 1.28-.695 1.121-1.158l-2.506-7.347c-.158-.463-.69-.54-1.595-.231l-.422-1.238 5.764-1.966.422 1.238M68.122 54.071l3.244-1.106-3.247-4.384.003 5.49zm8.197.034c.205.267.663.28 1.377.035l.422 1.238-6.05 2.063-.422-1.236 1.162-.397c.291-.1.407-.24.345-.422a.61.61 0 0 0-.107-.165l-.835-1.063-4.073 1.39-.007 1.215a.646.646 0 0 0 .021.212c.086.251.355.3.808.145l.86-.294.422 1.238-4.27 1.456-.437-1.231c.433-.148.734-.293.905-.435.17-.143.256-.293.258-.451l.128-10.689 3.047-1.04 6.446 8.43zM81.854 48.259l1.236 3.62 1.946-.664c.342-.116.611-.258.806-.426.196-.168.333-.358.412-.57.08-.213.108-.44.086-.686a3.286 3.286 0 0 0-.172-.775c-.198-.584-.484-.978-.857-1.182-.373-.204-.877-.198-1.51.019l-1.947.664zm-1.45-4.256l1.013 2.973 1.554-.53c.554-.19.891-.456 1.016-.802.124-.345.087-.805-.109-1.377-.295-.866-.934-1.13-1.92-.793l-1.555.53zm1.646-2.481c.583-.2 1.13-.35 1.64-.45.51-.101.97-.112 1.379-.033.409.08.772.27 1.088.573.315.302.58.759.789 1.372.119.353.17.683.152.993-.018.31-.091.595-.221.859a2.48 2.48 0 0 1-.524.709c-.22.21-.471.396-.752.56.942-.233 1.743-.213 2.402.056.659.27 1.13.817 1.41 1.642.217.633.315 1.192.295 1.676-.02.485-.163.915-.428 1.29-.264.378-.649.714-1.155 1.01-.505.296-1.13.57-1.874.825l-7.016 2.392-.422-1.236c.895-.306 1.264-.69 1.106-1.153l-2.47-7.242c-.158-.462-.685-.542-1.58-.237l-.458-1.342 6.639-2.264zM94.723 38.58c-1.116.38-1.596.803-1.438 1.265l2.64 7.74 2.58-.88c.644-.22 1.077-.605 1.298-1.158.222-.553.198-1.373-.072-2.46l1.379-.352 1.104 4.424-10.17 3.469-.422-1.238c.896-.305 1.264-.69 1.107-1.152l-2.506-7.348c-.158-.463-.685-.542-1.58-.236l-.423-1.237 6.081-2.075.422 1.238M111.467 35.277l-1.483.59c-.499-1.266-1.282-1.718-2.349-1.355l-2.836.968 1.075 3.154 1.147-.391c.474-.162.563-.821.269-1.979l1.327-.453 1.38 4.785-1.297.442c-.51-1.128-.96-1.626-1.351-1.493l-1.042.356 1.266 3.712 2.294-.783c1.589-.542 2.118-1.79 1.587-3.741l1.575-.42 1.104 4.424-10.44 3.561-.423-1.236c.896-.306 1.265-.69 1.107-1.153l-2.507-7.349c-.157-.462-.684-.54-1.58-.235l-.421-1.237 10.44-3.561 1.158 3.394"/>
    </g>
</svg>
