<?xml version="1.0" encoding="UTF-8"?>
<svg width="150px" height="150px" viewBox="0 0 70 72" version="1.1" xmlns="http://www.w3.org/2000/svg" xmlns:xlink="http://www.w3.org/1999/xlink">
    <g id="Page-1" stroke="none" stroke-width="1" fill="none" fill-rule="evenodd">
        <g id="trust-unit-footer-mweb-copy" transform="translate(-152.000000, -218.000000)">
            <g id="Group-5" transform="translate(151.000000, 218.000000)">
                <g id="Group-3" transform="translate(0.909346, 0.000000)">
                    <circle id="Oval-9" fill="#FFFFFF" cx="34.9906542" cy="34.6542056" r="33.9813084"></circle>
                    <g id="Group-2">
                        <path d="M34.9906542,69.6448598 C15.8516649,69.6448598 0.336448598,54.1296435 0.336448598,34.9906542 C0.336448598,15.8516649 15.8516649,0.336448598 34.9906542,0.336448598 C54.1296435,0.336448598 69.6448598,15.8516649 69.6448598,34.9906542 C69.6448598,54.1296435 54.1296435,69.6448598 34.9906542,69.6448598 Z M34.9906542,67.6261682 C53.0147509,67.6261682 67.6261682,53.0147509 67.6261682,34.9906542 C67.6261682,16.9665575 53.0147509,2.35514019 34.9906542,2.35514019 C16.9665575,2.35514019 2.35514019,16.9665575 2.35514019,34.9906542 C2.35514019,53.0147509 16.9665575,67.6261682 34.9906542,67.6261682 Z" id="Oval-8" fill="#1AAB2A" fill-rule="nonzero"></path>
                        <path d="M15.1401869,53.1588785 L54.8411215,53.1588785 C60.0439535,53.1588785 64.2616822,57.3766072 64.2616822,62.5794393 L64.2616822,62.5794393 C64.2616822,67.7822713 60.0439535,72 54.8411215,72 L15.1401869,72 C9.93735488,72 5.71962617,67.7822713 5.71962617,62.5794393 L5.71962617,62.5794393 C5.71962617,57.3766072 9.93735488,53.1588785 15.1401869,53.1588785 Z" id="Rectangle-9" fill="#1AAB2A"></path>
                        <path d="M14.8865362,58.0058411 L17.7016647,65.0318341 L20.5167932,58.0058411 L21.989413,58.0058411 L21.989413,66.6168224 L20.8538989,66.6168224 L20.8538989,63.2635076 L20.9603534,59.6440567 L18.1333966,66.6168224 L17.2640187,66.6168224 L14.4429761,59.6617991 L14.5553446,63.2635076 L14.5553446,66.6168224 L13.4198306,66.6168224 L13.4198306,58.0058411 L14.8865362,58.0058411 Z M25.2126168,66.6168224 L24.0771028,66.6168224 L24.0771028,58.0058411 L25.2126168,58.0058411 L25.2126168,66.6168224 Z M28.4299065,65.6883032 L32.51066,65.6883032 L32.51066,66.6168224 L27.2884784,66.6168224 L27.2884784,58.0058411 L28.4299065,58.0058411 L28.4299065,65.6883032 Z M34.9472839,65.6883032 L39.0280374,65.6883032 L39.0280374,66.6168224 L33.8058557,66.6168224 L33.8058557,58.0058411 L34.9472839,58.0058411 L34.9472839,65.6883032 Z M41.541545,66.6168224 L40.406031,66.6168224 L40.406031,58.0058411 L41.541545,58.0058411 L41.541545,66.6168224 Z M50.2412383,62.5892961 C50.2412383,63.4330504 50.0993005,64.1693529 49.8154206,64.7982258 C49.5315406,65.4270986 49.1293834,65.9071245 48.6089369,66.2383178 C48.0884904,66.569511 47.4813119,66.7351051 46.7873832,66.7351051 C46.1092256,66.7351051 45.5079611,66.5685253 44.9835718,66.2353607 C44.4591825,65.9021961 44.052097,65.4270986 43.7623029,64.810054 C43.4725088,64.1930095 43.3236712,63.4783919 43.3157856,62.6661799 L43.3157856,62.0451957 C43.3157856,61.2172126 43.4596948,60.4858385 43.7475175,59.8510514 C44.0353402,59.2162643 44.4424258,58.7303244 44.9687865,58.393217 C45.4951472,58.0561096 46.0973973,57.8875584 46.7755549,57.8875584 C47.4655408,57.8875584 48.073705,58.0541382 48.6000657,58.3873029 C49.1264264,58.7204675 49.5315406,59.2034504 49.8154206,59.8362661 C50.0993005,60.4690817 50.2412383,61.2053842 50.2412383,62.0451957 L50.2412383,62.5892961 Z M49.1116384,62.0333674 C49.1116384,61.0121882 48.9066171,60.2285731 48.4965683,59.6824985 C48.0865196,59.136424 47.5128542,58.8633908 46.7755549,58.8633908 C46.0579695,58.8633908 45.4931752,59.136424 45.0811551,59.6824985 C44.6691349,60.2285731 44.4572138,60.9865606 44.4453855,61.9564836 L44.4453855,62.5892961 C44.4453855,63.5789331 44.6533639,64.3566341 45.0693268,64.9224226 C45.4852898,65.4882111 46.0579695,65.7711011 46.7873832,65.7711011 C47.5207396,65.7711011 48.088491,65.5039819 48.4906542,64.9697357 C48.8928174,64.4354894 49.0998101,63.6696166 49.1116384,62.672094 L49.1116384,62.0333674 Z M58.562427,66.6168224 L57.4209988,66.6168224 L53.0859375,59.9811624 L53.0859375,66.6168224 L51.9445093,66.6168224 L51.9445093,58.0058411 L53.0859375,58.0058411 L57.4328271,64.6710718 L57.4328271,58.0058411 L58.562427,58.0058411 L58.562427,66.6168224 Z" id="MILLION" fill="#FFFFFF"></path>
                    </g>
                </g>
                <path d="M32.1816406,45 L15.4121094,45 L15.4121094,42.6621094 L24.2714844,32.8183594 C25.5839909,31.3300707 26.4892553,30.1201218 26.9873047,29.1884766 C27.4853541,28.2568313 27.734375,27.2929737 27.734375,26.296875 C27.734375,24.9609308 27.3300822,23.8652387 26.5214844,23.0097656 C25.7128866,22.1542926 24.6347724,21.7265625 23.2871094,21.7265625 C21.6699138,21.7265625 20.4130904,22.1865188 19.5166016,23.1064453 C18.6201127,24.0263718 18.171875,25.3066324 18.171875,26.9472656 L14.9199219,26.9472656 C14.9199219,24.5917851 15.6787033,22.6875073 17.1962891,21.234375 C18.7138748,19.7812427 20.7441279,19.0546875 23.2871094,19.0546875 C25.6660275,19.0546875 27.5468681,19.6787047 28.9296875,20.9267578 C30.3125069,22.1748109 31.0039062,23.8359271 31.0039062,25.9101562 C31.0039062,28.4297001 29.3984536,31.4296701 26.1875,34.9101562 L19.3320312,42.3457031 L32.1816406,42.3457031 L32.1816406,45 Z M51.6757812,34.0839844 C51.6757812,37.8925972 51.0253971,40.722647 49.7246094,42.5742188 C48.4238216,44.4257905 46.3906388,45.3515625 43.625,45.3515625 C40.8945176,45.3515625 38.8730534,44.4462981 37.5605469,42.6357422 C36.2480403,40.8251863 35.5683596,38.1211117 35.5214844,34.5234375 L35.5214844,30.1816406 C35.5214844,26.4199031 36.1718685,23.6250091 37.4726562,21.796875 C38.773444,19.9687409 40.8124861,19.0546875 43.5898438,19.0546875 C46.3437638,19.0546875 48.3710872,19.9365146 49.671875,21.7001953 C50.9726628,23.463876 51.6406248,26.1855285 51.6757812,29.8652344 L51.6757812,34.0839844 Z M48.4238281,29.6367188 C48.4238281,26.8827987 48.0371132,24.8759829 47.2636719,23.6162109 C46.4902305,22.356439 45.2656334,21.7265625 43.5898438,21.7265625 C41.9257729,21.7265625 40.7128944,22.3535094 39.9511719,23.6074219 C39.1894493,24.8613344 38.7968751,26.7890495 38.7734375,29.390625 L38.7734375,34.59375 C38.7734375,37.3593888 39.1748007,39.4013606 39.9775391,40.7197266 C40.7802775,42.0380925 41.9960856,42.6972656 43.625,42.6972656 C45.2304768,42.6972656 46.4228477,42.0761781 47.2021484,40.8339844 C47.9814492,39.5917907 48.3886717,37.634779 48.4238281,34.9628906 L48.4238281,29.6367188 Z" id="20" fill="#4A4A4A"></path>
            </g>
        </g>
    </g>
</svg>